<?xml version="1.0" encoding="UTF-8"?> <svg xmlns="http://www.w3.org/2000/svg" width="32" height="32" viewBox="0 0 32 32" fill="none"> <circle cx="16" cy="16" r="16" fill="url(#paint0_linear_90_491)"></circle> <g filter="url(#filter0_bd_90_491)"> <path d="M21.8635 10.1364L9.46012 15.0323C8.96099 15.2603 8.79217 15.7169 9.33948 15.9647L12.5215 16.9998L20.2151 12.1327C20.6352 11.8272 21.0653 11.9086 20.6952 12.2448L14.0874 18.3689L13.8798 20.9607C14.0721 21.3609 14.4241 21.3627 14.6486 21.1638L16.4768 19.3932L19.6078 21.7931C20.335 22.2337 20.7307 21.9494 20.8872 21.1417L22.9408 11.1877C23.154 10.1935 22.7904 9.75546 21.8635 10.1364V10.1364Z" fill="#E0EBFF"></path> <path d="M21.8635 10.1364L22.1485 10.8301C22.1837 10.8156 22.2159 10.8036 22.2451 10.7936C22.2393 10.8576 22.2277 10.9361 22.2075 11.0305L22.2075 11.0305L22.2063 11.0362L20.1526 20.9901L20.1526 20.9901L20.1508 20.999C20.1336 21.0881 20.1148 21.1564 20.0973 21.2073C20.0771 21.1974 20.0542 21.1853 20.0284 21.1705L16.9331 18.7979L16.4197 18.4044L15.955 18.8544L14.7039 20.0662L14.8117 18.7203L21.2026 12.797C21.2772 12.729 21.3544 12.6472 21.4195 12.5508C21.4818 12.4586 21.5617 12.3109 21.5814 12.1193C21.6038 11.9021 21.5427 11.6629 21.3693 11.4739C21.2701 11.3659 21.1583 11.3004 21.0586 11.2604L22.1388 10.834L21.8635 10.1364ZM10.3259 15.4969L18.7518 12.171L12.4183 16.1776L10.3259 15.4969ZM20.7568 12.686C20.7567 12.6861 20.7542 12.687 20.7492 12.688C20.7544 12.6863 20.7568 12.6858 20.7568 12.686ZM20.0466 21.3188C20.0465 21.3188 20.0467 21.3186 20.047 21.3183L20.0466 21.3188ZM20.8871 21.1416L20.8871 21.1416L20.8871 21.1416Z" stroke="url(#paint1_linear_90_491)" stroke-width="1.5"></path> </g> <defs> <filter id="filter0_bd_90_491" x="4" y="6" width="23" height="21" filterUnits="userSpaceOnUse" color-interpolation-filters="sRGB"> <feFlood flood-opacity="0" result="BackgroundImageFix"></feFlood> <feGaussianBlur in="BackgroundImageFix" stdDeviation="2"></feGaussianBlur> <feComposite in2="SourceAlpha" operator="in" result="effect1_backgroundBlur_90_491"></feComposite> <feColorMatrix in="SourceAlpha" type="matrix" values="0 0 0 0 0 0 0 0 0 0 0 0 0 0 0 0 0 0 127 0" result="hardAlpha"></feColorMatrix> <feOffset dx="-2" dy="2"></feOffset> <feGaussianBlur stdDeviation="1.5"></feGaussianBlur> <feComposite in2="hardAlpha" operator="out"></feComposite> <feColorMatrix type="matrix" values="0 0 0 0 0 0 0 0 0 0 0 0 0 0 0 0 0 0 0.19 0"></feColorMatrix> <feBlend mode="normal" in2="effect1_backgroundBlur_90_491" result="effect2_dropShadow_90_491"></feBlend> <feBlend mode="normal" in="SourceGraphic" in2="effect2_dropShadow_90_491" result="shape"></feBlend> </filter> <linearGradient id="paint0_linear_90_491" x1="27" y1="1" x2="6.5" y2="28" gradientUnits="userSpaceOnUse"> <stop stop-color="#4962E7"></stop> <stop offset="1" stop-color="#79D3FA"></stop> </linearGradient> <linearGradient id="paint1_linear_90_491" x1="16.35" y1="11.3665" x2="19.4745" y2="17.857" gradientUnits="userSpaceOnUse"> <stop stop-color="white"></stop> <stop offset="1" stop-color="white" stop-opacity="0"></stop> </linearGradient> </defs> </svg> 