<?xml version="1.0" encoding="UTF-8"?> <svg xmlns="http://www.w3.org/2000/svg" width="32" height="32" viewBox="0 0 32 32" fill="none"> <circle cx="16" cy="16" r="16" fill="url(#paint0_linear_91_517)"></circle> <g filter="url(#filter0_bd_91_517)"> <path d="M16.8268 12.6497V11.4119C16.8268 10.8089 17.2335 10.666 17.5171 10.666C17.8007 10.666 19.2776 10.666 19.2776 10.666V8.01058L16.8535 8C14.1672 8 13.5518 9.97837 13.5518 11.2479V12.6497H12V15.7495H13.5679C13.5679 19.2619 13.5679 23.499 13.5679 23.499H16.7037C16.7037 23.499 16.7037 19.2196 16.7037 15.7495H19.0315L19.3151 12.6497H16.8268Z" fill="#E0EBFF"></path> <path d="M16.0768 12.6497V13.3997H16.8268H18.4933L18.3469 14.9995H16.7037H15.9537V15.7495V15.7698V15.7902V15.8106V15.831V15.8514V15.8718V15.8923V15.9127V15.9332V15.9537V15.9742V15.9948V16.0153V16.0359V16.0564V16.077V16.0976V16.1183V16.1389V16.1596V16.1802V16.2009V16.2216V16.2423V16.263V16.2837V16.3045V16.3252V16.346V16.3668V16.3876V16.4084V16.4292V16.45V16.4709V16.4917V16.5126V16.5334V16.5543V16.5752V16.5961V16.617V16.6379V16.6588V16.6798V16.7007V16.7217V16.7426V16.7636V16.7845V16.8055V16.8265V16.8475V16.8685V16.8895V16.9105V16.9315V16.9525V16.9736V16.9946V17.0156V17.0367V17.0577V17.0788V17.0998V17.1209V17.142V17.163V17.1841V17.2052V17.2262V17.2473V17.2684V17.2895V17.3105V17.3316V17.3527V17.3738V17.3949V17.416V17.4371V17.4581V17.4792V17.5003V17.5214V17.5425V17.5636V17.5847V17.6057V17.6268V17.6479V17.669V17.69V17.7111V17.7322V17.7532V17.7743V17.7954V17.8164V17.8375V17.8585V17.8795V17.9006V17.9216V17.9426V17.9637V17.9847V18.0057V18.0267V18.0477V18.0687V18.0897V18.1106V18.1316V18.1526V18.1735V18.1945V18.2154V18.2363V18.2573V18.2782V18.2991V18.32V18.3409V18.3617V18.3826V18.4035V18.4243V18.4451V18.466V18.4868V18.5076V18.5284V18.5491V18.5699V18.5907V18.6114V18.6321V18.6529V18.6736V18.6942V18.7149V18.7356V18.7562V18.7769V18.7975V18.8181V18.8387V18.8593V18.8798V18.9004V18.9209V18.9414V18.9619V18.9824V19.0028V19.0233V19.0437V19.0641V19.0845V19.1049V19.1252V19.1456V19.1659V19.1862V19.2065V19.2268V19.247V19.2672V19.2874V19.3076V19.3278V19.3479V19.368V19.3881V19.4082V19.4283V19.4483V19.4683V19.4883V19.5083V19.5282V19.5482V19.5681V19.588V19.6078V19.6276V19.6474V19.6672V19.687V19.7067V19.7264V19.7461V19.7658V19.7854V19.805V19.8246V19.8441V19.8637V19.8832V19.9026V19.9221V19.9415V19.9609V19.9803V19.9996V20.0189V20.0382V20.0574V20.0767V20.0959V20.115V20.1342V20.1533V20.1723V20.1914V20.2104V20.2294V20.2483V20.2672V20.2861V20.305V20.3238V20.3426V20.3613V20.3801V20.3988V20.4174V20.436V20.4546V20.4732V20.4917V20.5102V20.5287V20.5471V20.5655V20.5838V20.6022V20.6204V20.6387V20.6569V20.6751V20.6932V20.7113V20.7294V20.7474V20.7654V20.7833V20.8012V20.8191V20.8369V20.8547V20.8725V20.8902V20.9079V20.9255V20.9431V20.9607V20.9782V20.9957V21.0131V21.0305V21.0479V21.0652V21.0825V21.0997V21.1169V21.1341V21.1512V21.1682V21.1852V21.2022V21.2192V21.236V21.2529V21.2697V21.2865V21.3032V21.3198V21.3365V21.353V21.3696V21.3861V21.4025V21.4189V21.4353V21.4516V21.4678V21.484V21.5002V21.5163V21.5324V21.5484V21.5644V21.5803V21.5962V21.612V21.6278V21.6435V21.6592V21.6748V21.6904V21.7059V21.7214V21.7368V21.7522V21.7675V21.7828V21.798V21.8132V21.8283V21.8434V21.8584V21.8733V21.8882V21.9031V21.9179V21.9326V21.9473V21.962V21.9766V21.9911V22.0056V22.02V22.0344V22.0487V22.0629V22.0771V22.0913V22.1054V22.1194V22.1334V22.1473V22.1611V22.1749V22.1887V22.2024V22.216V22.2296V22.2431V22.2565V22.2699V22.2833V22.2965V22.3097V22.3229V22.336V22.349V22.362V22.3749V22.3878V22.4006V22.4133V22.426V22.4386V22.4511V22.4636V22.476V22.4884V22.5007V22.5129V22.525V22.5371V22.5492V22.5612V22.5731V22.5849V22.5967V22.6084V22.62V22.6316V22.6431V22.6546V22.666V22.6773V22.6885V22.6997V22.7108V22.7219V22.7329V22.7438V22.749H14.3179V22.7391V22.7282V22.7173V22.7062V22.6951V22.684V22.6727V22.6614V22.65V22.6386V22.6271V22.6155V22.6039V22.5922V22.5804V22.5686V22.5567V22.5448V22.5327V22.5207V22.5085V22.4963V22.484V22.4717V22.4593V22.4468V22.4343V22.4217V22.4091V22.3964V22.3836V22.3708V22.3579V22.3449V22.3319V22.3188V22.3057V22.2925V22.2793V22.266V22.2526V22.2392V22.2257V22.2121V22.1985V22.1849V22.1711V22.1574V22.1435V22.1296V22.1157V22.1017V22.0876V22.0735V22.0593V22.0451V22.0308V22.0165V22.0021V21.9876V21.9731V21.9586V21.944V21.9293V21.9146V21.8998V21.885V21.8701V21.8552V21.8402V21.8251V21.81V21.7949V21.7797V21.7645V21.7492V21.7338V21.7184V21.703V21.6875V21.6719V21.6563V21.6407V21.625V21.6092V21.5934V21.5776V21.5617V21.5457V21.5297V21.5137V21.4976V21.4815V21.4653V21.4491V21.4328V21.4165V21.4001V21.3837V21.3672V21.3507V21.3342V21.3176V21.3009V21.2842V21.2675V21.2507V21.2339V21.217V21.2001V21.1832V21.1662V21.1491V21.1321V21.1149V21.0978V21.0806V21.0633V21.046V21.0287V21.0113V20.9939V20.9764V20.9589V20.9414V20.9238V20.9062V20.8885V20.8708V20.8531V20.8353V20.8175V20.7997V20.7818V20.7638V20.7459V20.7279V20.7098V20.6917V20.6736V20.6555V20.6373V20.6191V20.6008V20.5825V20.5642V20.5458V20.5274V20.5089V20.4905V20.4719V20.4534V20.4348V20.4162V20.3976V20.3789V20.3602V20.3414V20.3226V20.3038V20.285V20.2661V20.2472V20.2282V20.2093V20.1903V20.1712V20.1522V20.1331V20.1139V20.0948V20.0756V20.0564V20.0371V20.0179V19.9985V19.9792V19.9598V19.9405V19.921V19.9016V19.8821V19.8626V19.8431V19.8235V19.8039V19.7843V19.7647V19.745V19.7253V19.7056V19.6859V19.6661V19.6463V19.6265V19.6067V19.5868V19.5669V19.547V19.5271V19.5071V19.4871V19.4671V19.4471V19.427V19.4069V19.3868V19.3667V19.3466V19.3264V19.3062V19.286V19.2658V19.2456V19.2253V19.205V19.1847V19.1644V19.144V19.1237V19.1033V19.0829V19.0624V19.042V19.0215V19.0011V18.9806V18.9601V18.9395V18.919V18.8984V18.8778V18.8572V18.8366V18.816V18.7953V18.7747V18.754V18.7333V18.7126V18.6919V18.6711V18.6504V18.6296V18.6088V18.5881V18.5673V18.5464V18.5256V18.5048V18.4839V18.463V18.4422V18.4213V18.4004V18.3794V18.3585V18.3376V18.3166V18.2957V18.2747V18.2537V18.2327V18.2117V18.1907V18.1697V18.1487V18.1277V18.1066V18.0856V18.0645V18.0434V18.0224V18.0013V17.9802V17.9591V17.938V17.9169V17.8958V17.8746V17.8535V17.8324V17.8112V17.7901V17.769V17.7478V17.7266V17.7055V17.6843V17.6631V17.642V17.6208V17.5996V17.5784V17.5572V17.5361V17.5149V17.4937V17.4725V17.4513V17.4301V17.4089V17.3877V17.3665V17.3453V17.3241V17.3029V17.2817V17.2605V17.2393V17.2181V17.1969V17.1757V17.1545V17.1333V17.1121V17.0909V17.0697V17.0486V17.0274V17.0062V16.985V16.9639V16.9427V16.9215V16.9004V16.8792V16.8581V16.8369V16.8158V16.7946V16.7735V16.7524V16.7313V16.7102V16.689V16.6679V16.6469V16.6258V16.6047V16.5836V16.5626V16.5415V16.5205V16.4994V16.4784V16.4574V16.4364V16.4154V16.3944V16.3734V16.3524V16.3314V16.3105V16.2895V16.2686V16.2477V16.2268V16.2059V16.185V16.1641V16.1433V16.1224V16.1016V16.0808V16.0599V16.0392V16.0184V15.9976V15.9768V15.9561V15.9354V15.9147V15.894V15.8733V15.8526V15.832V15.8113V15.7907V15.7701V15.7495V14.9995H13.5679H12.75V13.3997H13.5518H14.3018V12.6497V11.2479C14.3018 10.7134 14.4346 10.0791 14.7955 9.59768C15.1281 9.15388 15.7194 8.75037 16.852 8.75C16.8525 8.75 16.853 8.75 16.8535 8.75L18.5276 8.75731V9.91604H18.5274H18.5226H18.5179H18.5132H18.5084H18.5037H18.499H18.4942H18.4895H18.4847H18.4799H18.4752H18.4704H18.4657H18.4609H18.4561H18.4514H18.4466H18.4418H18.437H18.4323H18.4275H18.4227H18.4179H18.4131H18.4084H18.4036H18.3988H18.394H18.3892H18.3844H18.3796H18.3749H18.3701H18.3653H18.3605H18.3557H18.3509H18.3461H18.3414H18.3366H18.3318H18.327H18.3222H18.3175H18.3127H18.3079H18.3031H18.2984H18.2936H18.2888H18.284H18.2793H18.2745H18.2698H18.265H18.2603H18.2555H18.2508H18.246H18.2413H18.2365H18.2318H18.2271H18.2223H18.2176H18.2129H18.2082H18.2035H18.1988H18.194H18.1894H18.1847H18.18H18.1753H18.1706H18.1659H18.1613H18.1566H18.1519H18.1473H18.1426H18.138H18.1334H18.1287H18.1241H18.1195H18.1149H18.1103H18.1057H18.1011H18.0965H18.0919H18.0874H18.0828H18.0782H18.0737H18.0692H18.0646H18.0601H18.0556H18.0511H18.0466H18.0421H18.0376H18.0331H18.0287H18.0242H18.0198H18.0153H18.0109H18.0065H18.0021H17.9977H17.9933H17.9889H17.9845H17.9801H17.9758H17.9714H17.9671H17.9628H17.9585H17.9542H17.9499H17.9456H17.9414H17.9371H17.9329H17.9286H17.9244H17.9202H17.916H17.9118H17.9076H17.9035H17.8993H17.8952H17.8911H17.8869H17.8828H17.8788H17.8747H17.8706H17.8666H17.8625H17.8585H17.8545H17.8505H17.8465H17.8426H17.8386H17.8347H17.8308H17.8269H17.823H17.8191H17.8152H17.8114H17.8075H17.8037H17.7999H17.7961H17.7924H17.7886H17.7849H17.7811H17.7774H17.7737H17.7701H17.7664H17.7627H17.7591H17.7555H17.7519H17.7483H17.7448H17.7412H17.7377H17.7342H17.7307H17.7272H17.7238H17.7203H17.7169H17.7135H17.7101H17.7068H17.7034H17.7001H17.6968H17.6935H17.6902H17.687H17.6837H17.6805H17.6773H17.6741H17.671H17.6679H17.6647H17.6616H17.6586H17.6555H17.6525H17.6495H17.6465H17.6435H17.6405H17.6376H17.6347H17.6318H17.6289H17.6261H17.6233H17.6205H17.6177H17.6149H17.6122H17.6095H17.6068H17.6041H17.6015H17.5988H17.5962H17.5937H17.5911H17.5886H17.5861H17.5836H17.5811H17.5787H17.5763H17.5739H17.5715H17.5692H17.5668H17.5645H17.5623H17.56H17.5578H17.5556H17.5534H17.5513H17.5492H17.5471H17.545H17.543H17.5409H17.5389H17.537H17.535H17.5331H17.5312H17.5294H17.5275H17.5257H17.5239H17.5222H17.5204H17.5187H17.5171C17.2674 9.91604 16.9066 9.97639 16.5935 10.2301C16.2508 10.5077 16.0768 10.9255 16.0768 11.4119V12.6497Z" stroke="url(#paint1_linear_91_517)" stroke-width="1.5"></path> </g> <defs> <filter id="filter0_bd_91_517" x="7" y="4" width="16.3151" height="24.499" filterUnits="userSpaceOnUse" color-interpolation-filters="sRGB"> <feFlood flood-opacity="0" result="BackgroundImageFix"></feFlood> <feGaussianBlur in="BackgroundImageFix" stdDeviation="2"></feGaussianBlur> <feComposite in2="SourceAlpha" operator="in" result="effect1_backgroundBlur_91_517"></feComposite> <feColorMatrix in="SourceAlpha" type="matrix" values="0 0 0 0 0 0 0 0 0 0 0 0 0 0 0 0 0 0 127 0" result="hardAlpha"></feColorMatrix> <feOffset dx="-2" dy="2"></feOffset> <feGaussianBlur stdDeviation="1.5"></feGaussianBlur> <feComposite in2="hardAlpha" operator="out"></feComposite> <feColorMatrix type="matrix" values="0 0 0 0 0 0 0 0 0 0 0 0 0 0 0 0 0 0 0.19 0"></feColorMatrix> <feBlend mode="normal" in2="effect1_backgroundBlur_91_517" result="effect2_dropShadow_91_517"></feBlend> <feBlend mode="normal" in="SourceGraphic" in2="effect2_dropShadow_91_517" result="shape"></feBlend> </filter> <linearGradient id="paint0_linear_91_517" x1="27" y1="1" x2="6.5" y2="28" gradientUnits="userSpaceOnUse"> <stop stop-color="#4962E7"></stop> <stop offset="1" stop-color="#79D3FA"></stop> </linearGradient> <linearGradient id="paint1_linear_91_517" x1="12" y1="11.6621" x2="16.7054" y2="14.7324" gradientUnits="userSpaceOnUse"> <stop stop-color="white"></stop> <stop offset="1" stop-color="white" stop-opacity="0"></stop> </linearGradient> </defs> </svg> 