<?xml version="1.0" encoding="UTF-8"?> <svg xmlns="http://www.w3.org/2000/svg" width="317" height="47" viewBox="0 0 317 47" fill="none"> <path d="M311.615 41.7086C310.687 42.8523 310.862 44.5316 312.005 45.4595C313.149 46.3874 314.828 46.2125 315.756 45.0688C316.684 43.9251 316.509 42.2457 315.366 41.3178C314.222 40.3899 312.543 40.5649 311.615 41.7086ZM261.15 1.40931C261.364 1.58329 261.679 1.55049 261.853 1.33605C262.027 1.1216 261.994 0.806725 261.78 0.632744L261.15 1.40931ZM263.339 1.89745C263.124 1.72347 262.809 1.75627 262.636 1.97071C262.462 2.18515 262.494 2.50003 262.709 2.67401L263.339 1.89745ZM264.268 3.93872C264.482 4.1127 264.797 4.0799 264.971 3.86546C265.145 3.65102 265.112 3.33614 264.898 3.16216L264.268 3.93872ZM266.456 4.42686C266.242 4.25288 265.927 4.28568 265.753 4.50012C265.579 4.71456 265.612 5.02944 265.826 5.20342L266.456 4.42686ZM267.385 6.46813C267.6 6.64211 267.915 6.60931 268.089 6.39487C268.263 6.18043 268.23 5.86555 268.015 5.69157L267.385 6.46813ZM269.574 6.95627C269.36 6.78229 269.045 6.81509 268.871 7.02953C268.697 7.24398 268.73 7.55885 268.944 7.73284L269.574 6.95627ZM270.503 8.99754C270.717 9.17152 271.032 9.13872 271.206 8.92428C271.38 8.70984 271.347 8.39496 271.133 8.22098L270.503 8.99754ZM272.692 9.48569C272.477 9.3117 272.162 9.3445 271.988 9.55895C271.814 9.77339 271.847 10.0883 272.062 10.2622L272.692 9.48569ZM273.621 11.527C273.835 11.7009 274.15 11.6681 274.324 11.4537C274.498 11.2393 274.465 10.9244 274.251 10.7504L273.621 11.527ZM275.809 12.0151C275.595 11.8411 275.28 11.8739 275.106 12.0884C274.932 12.3028 274.965 12.6177 275.179 12.7917L275.809 12.0151ZM276.738 14.0564C276.953 14.2303 277.267 14.1975 277.441 13.9831C277.615 13.7687 277.583 13.4538 277.368 13.2798L276.738 14.0564ZM278.927 14.5445C278.713 14.3705 278.398 14.4033 278.224 14.6178C278.05 14.8322 278.083 15.1471 278.297 15.3211L278.927 14.5445ZM279.856 16.5858C280.07 16.7598 280.385 16.727 280.559 16.5125C280.733 16.2981 280.7 15.9832 280.486 15.8092L279.856 16.5858ZM282.045 17.0739C281.83 16.8999 281.515 16.9327 281.341 17.1472C281.167 17.3616 281.2 17.6765 281.415 17.8505L282.045 17.0739ZM282.973 19.1152C283.188 19.2892 283.503 19.2564 283.677 19.0419C283.851 18.8275 283.818 18.5126 283.604 18.3386L282.973 19.1152ZM285.162 19.6033C284.948 19.4294 284.633 19.4622 284.459 19.6766C284.285 19.891 284.318 20.2059 284.532 20.3799L285.162 19.6033ZM286.091 21.6446C286.306 21.8186 286.62 21.7858 286.794 21.5713C286.968 21.3569 286.936 21.042 286.721 20.868L286.091 21.6446ZM288.28 22.1327C288.066 21.9588 287.751 21.9916 287.577 22.206C287.403 22.4204 287.435 22.7353 287.65 22.9093L288.28 22.1327ZM289.209 24.174C289.423 24.348 289.738 24.3152 289.912 24.1008C290.086 23.8863 290.053 23.5714 289.839 23.3975L289.209 24.174ZM291.398 24.6622C291.183 24.4882 290.868 24.521 290.694 24.7354C290.52 24.9499 290.553 25.2647 290.768 25.4387L291.398 24.6622ZM292.326 26.7034C292.541 26.8774 292.856 26.8446 293.03 26.6302C293.204 26.4157 293.171 26.1008 292.956 25.9269L292.326 26.7034ZM294.515 27.1916C294.301 27.0176 293.986 27.0504 293.812 27.2648C293.638 27.4793 293.671 27.7941 293.885 27.9681L294.515 27.1916ZM295.444 29.2328C295.658 29.4068 295.973 29.374 296.147 29.1596C296.321 28.9451 296.289 28.6303 296.074 28.4563L295.444 29.2328ZM297.633 29.721C297.418 29.547 297.104 29.5798 296.93 29.7942C296.756 30.0087 296.788 30.3236 297.003 30.4975L297.633 29.721ZM298.562 31.7622C298.776 31.9362 299.091 31.9034 299.265 31.689C299.439 31.4745 299.406 31.1597 299.192 30.9857L298.562 31.7622ZM300.751 32.2504C300.536 32.0764 300.221 32.1092 300.047 32.3237C299.873 32.5381 299.906 32.853 300.121 33.027L300.751 32.2504ZM301.679 34.2917C301.894 34.4656 302.209 34.4328 302.383 34.2184C302.557 34.004 302.524 33.6891 302.309 33.5151L301.679 34.2917ZM303.868 34.7798C303.654 34.6058 303.339 34.6386 303.165 34.8531C302.991 35.0675 303.024 35.3824 303.238 35.5564L303.868 34.7798ZM304.797 36.8211C305.011 36.9951 305.326 36.9623 305.5 36.7478C305.674 36.5334 305.641 36.2185 305.427 36.0445L304.797 36.8211ZM306.986 37.3092C306.771 37.1352 306.457 37.168 306.283 37.3825C306.109 37.5969 306.141 37.9118 306.356 38.0858L306.986 37.3092ZM307.915 39.3505C308.129 39.5245 308.444 39.4917 308.618 39.2772C308.792 39.0628 308.759 38.7479 308.545 38.5739L307.915 39.3505ZM310.104 39.8386C309.889 39.6646 309.574 39.6974 309.4 39.9119C309.226 40.1263 309.259 40.4412 309.473 40.6152L310.104 39.8386ZM311.032 41.8799C311.247 42.0539 311.562 42.0211 311.736 41.8066C311.91 41.5922 311.877 41.2773 311.662 41.1033L311.032 41.8799ZM313.221 42.368C313.007 42.1941 312.692 42.2269 312.518 42.4413C312.344 42.6557 312.377 42.9706 312.591 43.1446L313.221 42.368ZM260.371 0.776953L261.15 1.40931L261.78 0.632744L261.001 0.000390887L260.371 0.776953ZM262.709 2.67401L264.268 3.93872L264.898 3.16216L263.339 1.89745L262.709 2.67401ZM265.826 5.20342L267.385 6.46813L268.015 5.69157L266.456 4.42686L265.826 5.20342ZM268.944 7.73284L270.503 8.99754L271.133 8.22098L269.574 6.95627L268.944 7.73284ZM272.062 10.2622L273.621 11.527L274.251 10.7504L272.692 9.48569L272.062 10.2622ZM275.179 12.7917L276.738 14.0564L277.368 13.2798L275.809 12.0151L275.179 12.7917ZM278.297 15.3211L279.856 16.5858L280.486 15.8092L278.927 14.5445L278.297 15.3211ZM281.415 17.8505L282.973 19.1152L283.604 18.3386L282.045 17.0739L281.415 17.8505ZM284.532 20.3799L286.091 21.6446L286.721 20.868L285.162 19.6033L284.532 20.3799ZM287.65 22.9093L289.209 24.174L289.839 23.3975L288.28 22.1327L287.65 22.9093ZM290.768 25.4387L292.326 26.7034L292.956 25.9269L291.398 24.6622L290.768 25.4387ZM293.885 27.9681L295.444 29.2328L296.074 28.4563L294.515 27.1916L293.885 27.9681ZM297.003 30.4975L298.562 31.7622L299.192 30.9857L297.633 29.721L297.003 30.4975ZM300.121 33.027L301.679 34.2917L302.309 33.5151L300.751 32.2504L300.121 33.027ZM303.238 35.5564L304.797 36.8211L305.427 36.0445L303.868 34.7798L303.238 35.5564ZM306.356 38.0858L307.915 39.3505L308.545 38.5739L306.986 37.3092L306.356 38.0858ZM309.473 40.6152L311.032 41.8799L311.662 41.1033L310.104 39.8386L309.473 40.6152ZM312.591 43.1446L313.371 43.777L314.001 43.0004L313.221 42.368L312.591 43.1446Z" fill="#FEC03B"></path> <path d="M261 0.5L1 0.5" stroke="#FEC03B" stroke-linecap="round" stroke-dasharray="2 2"></path> </svg> 