<?xml version="1.0" encoding="UTF-8"?> <svg xmlns="http://www.w3.org/2000/svg" width="317" height="47" viewBox="0 0 317 47" fill="none"> <path d="M5.07083 41.7086C5.99873 42.8523 5.8238 44.5316 4.68011 45.4595C3.53642 46.3874 1.85707 46.2125 0.929169 45.0688C0.00127013 43.9251 0.176203 42.2457 1.31989 41.3178C2.46358 40.3899 4.14293 40.5649 5.07083 41.7086ZM55.5356 1.40931C55.3212 1.58329 55.0063 1.55049 54.8323 1.33605C54.6583 1.1216 54.6911 0.806725 54.9056 0.632744L55.5356 1.40931ZM53.3467 1.89745C53.5612 1.72347 53.8761 1.75627 54.05 1.97071C54.224 2.18515 54.1912 2.50003 53.9768 2.67401L53.3467 1.89745ZM52.418 3.93872C52.2035 4.1127 51.8886 4.0799 51.7147 3.86546C51.5407 3.65102 51.5735 3.33614 51.7879 3.16216L52.418 3.93872ZM50.2291 4.42686C50.4435 4.25288 50.7584 4.28568 50.9324 4.50012C51.1064 4.71456 51.0736 5.02944 50.8591 5.20342L50.2291 4.42686ZM49.3003 6.46813C49.0859 6.64211 48.771 6.60931 48.597 6.39487C48.423 6.18043 48.4558 5.86555 48.6703 5.69157L49.3003 6.46813ZM47.1114 6.95627C47.3259 6.78229 47.6408 6.81509 47.8148 7.02953C47.9887 7.24398 47.9559 7.55885 47.7415 7.73284L47.1114 6.95627ZM46.1827 8.99754C45.9682 9.17152 45.6533 9.13872 45.4794 8.92428C45.3054 8.70984 45.3382 8.39496 45.5526 8.22098L46.1827 8.99754ZM43.9938 9.48569C44.2082 9.3117 44.5231 9.3445 44.6971 9.55895C44.8711 9.77339 44.8383 10.0883 44.6238 10.2622L43.9938 9.48569ZM43.065 11.527C42.8506 11.7009 42.5357 11.6681 42.3617 11.4537C42.1877 11.2393 42.2205 10.9244 42.435 10.7504L43.065 11.527ZM40.8762 12.0151C41.0906 11.8411 41.4055 11.8739 41.5795 12.0884C41.7534 12.3028 41.7206 12.6177 41.5062 12.7917L40.8762 12.0151ZM39.9474 14.0564C39.7329 14.2303 39.4181 14.1975 39.2441 13.9831C39.0701 13.7687 39.1029 13.4538 39.3173 13.2798L39.9474 14.0564ZM37.7585 14.5445C37.973 14.3705 38.2878 14.4033 38.4618 14.6178C38.6358 14.8322 38.603 15.1471 38.3886 15.3211L37.7585 14.5445ZM36.8297 16.5858C36.6153 16.7598 36.3004 16.727 36.1264 16.5125C35.9524 16.2981 35.9852 15.9832 36.1997 15.8092L36.8297 16.5858ZM34.6409 17.0739C34.8553 16.8999 35.1702 16.9327 35.3442 17.1472C35.5181 17.3616 35.4853 17.6765 35.2709 17.8505L34.6409 17.0739ZM33.7121 19.1152C33.4976 19.2892 33.1828 19.2564 33.0088 19.0419C32.8348 18.8275 32.8676 18.5126 33.082 18.3386L33.7121 19.1152ZM31.5232 19.6033C31.7377 19.4294 32.0525 19.4622 32.2265 19.6766C32.4005 19.891 32.3677 20.2059 32.1533 20.3799L31.5232 19.6033ZM30.5944 21.6446C30.38 21.8186 30.0651 21.7858 29.8911 21.5713C29.7172 21.3569 29.75 21.042 29.9644 20.868L30.5944 21.6446ZM28.4056 22.1327C28.62 21.9588 28.9349 21.9916 29.1089 22.206C29.2828 22.4204 29.25 22.7353 29.0356 22.9093L28.4056 22.1327ZM27.4768 24.174C27.2623 24.348 26.9475 24.3152 26.7735 24.1008C26.5995 23.8863 26.6323 23.5714 26.8467 23.3975L27.4768 24.174ZM25.2879 24.6622C25.5024 24.4882 25.8172 24.521 25.9912 24.7354C26.1652 24.9499 26.1324 25.2647 25.918 25.4387L25.2879 24.6622ZM24.3591 26.7034C24.1447 26.8774 23.8298 26.8446 23.6558 26.6302C23.4819 26.4157 23.5147 26.1008 23.7291 25.9269L24.3591 26.7034ZM22.1703 27.1916C22.3847 27.0176 22.6996 27.0504 22.8736 27.2648C23.0476 27.4793 23.0148 27.7941 22.8003 27.9681L22.1703 27.1916ZM21.2415 29.2328C21.0271 29.4068 20.7122 29.374 20.5382 29.1596C20.3642 28.9451 20.397 28.6303 20.6115 28.4563L21.2415 29.2328ZM19.0526 29.721C19.2671 29.547 19.5819 29.5798 19.7559 29.7942C19.9299 30.0087 19.8971 30.3236 19.6827 30.4975L19.0526 29.721ZM18.1238 31.7622C17.9094 31.9362 17.5945 31.9034 17.4205 31.689C17.2466 31.4745 17.2794 31.1597 17.4938 30.9857L18.1238 31.7622ZM15.935 32.2504C16.1494 32.0764 16.4643 32.1092 16.6383 32.3237C16.8123 32.5381 16.7795 32.853 16.565 33.027L15.935 32.2504ZM15.0062 34.2917C14.7918 34.4656 14.4769 34.4328 14.3029 34.2184C14.1289 34.004 14.1617 33.6891 14.3762 33.5151L15.0062 34.2917ZM12.8173 34.7798C13.0318 34.6058 13.3467 34.6386 13.5206 34.8531C13.6946 35.0675 13.6618 35.3824 13.4474 35.5564L12.8173 34.7798ZM11.8885 36.8211C11.6741 36.9951 11.3592 36.9623 11.1852 36.7478C11.0113 36.5334 11.0441 36.2185 11.2585 36.0445L11.8885 36.8211ZM9.69969 37.3092C9.91413 37.1352 10.229 37.168 10.403 37.3825C10.577 37.5969 10.5442 37.9118 10.3297 38.0858L9.69969 37.3092ZM8.7709 39.3505C8.55646 39.5245 8.24158 39.4917 8.0676 39.2772C7.89362 39.0628 7.92642 38.7479 8.14086 38.5739L8.7709 39.3505ZM6.58204 39.8386C6.79648 39.6646 7.11136 39.6974 7.28534 39.9119C7.45932 40.1263 7.42652 40.4412 7.21208 40.6152L6.58204 39.8386ZM5.65326 41.8799C5.43881 42.0539 5.12393 42.0211 4.94995 41.8066C4.77597 41.5922 4.80877 41.2773 5.02321 41.1033L5.65326 41.8799ZM3.46439 42.368C3.67883 42.1941 3.99371 42.2269 4.16769 42.4413C4.34168 42.6557 4.30888 42.9706 4.09443 43.1446L3.46439 42.368ZM56.315 0.776953L55.5356 1.40931L54.9056 0.632744L55.685 0.000390887L56.315 0.776953ZM53.9768 2.67401L52.418 3.93872L51.7879 3.16216L53.3467 1.89745L53.9768 2.67401ZM50.8591 5.20342L49.3003 6.46813L48.6703 5.69157L50.2291 4.42686L50.8591 5.20342ZM47.7415 7.73284L46.1827 8.99754L45.5526 8.22098L47.1114 6.95627L47.7415 7.73284ZM44.6238 10.2622L43.065 11.527L42.435 10.7504L43.9938 9.48569L44.6238 10.2622ZM41.5062 12.7917L39.9474 14.0564L39.3173 13.2798L40.8762 12.0151L41.5062 12.7917ZM38.3886 15.3211L36.8297 16.5858L36.1997 15.8092L37.7585 14.5445L38.3886 15.3211ZM35.2709 17.8505L33.7121 19.1152L33.082 18.3386L34.6409 17.0739L35.2709 17.8505ZM32.1533 20.3799L30.5944 21.6446L29.9644 20.868L31.5232 19.6033L32.1533 20.3799ZM29.0356 22.9093L27.4768 24.174L26.8467 23.3975L28.4056 22.1327L29.0356 22.9093ZM25.918 25.4387L24.3591 26.7034L23.7291 25.9269L25.2879 24.6622L25.918 25.4387ZM22.8003 27.9681L21.2415 29.2328L20.6115 28.4563L22.1703 27.1916L22.8003 27.9681ZM19.6827 30.4975L18.1238 31.7622L17.4938 30.9857L19.0526 29.721L19.6827 30.4975ZM16.565 33.027L15.0062 34.2917L14.3762 33.5151L15.935 32.2504L16.565 33.027ZM13.4474 35.5564L11.8885 36.8211L11.2585 36.0445L12.8173 34.7798L13.4474 35.5564ZM10.3297 38.0858L8.7709 39.3505L8.14086 38.5739L9.69969 37.3092L10.3297 38.0858ZM7.21208 40.6152L5.65326 41.8799L5.02321 41.1033L6.58204 39.8386L7.21208 40.6152ZM4.09443 43.1446L3.31502 43.777L2.68498 43.0004L3.46439 42.368L4.09443 43.1446Z" fill="#FEC03B"></path> <path d="M55.6855 0.5L315.686 0.5" stroke="#FEC03B" stroke-linecap="round" stroke-dasharray="2 2"></path> </svg> 