<?xml version="1.0" encoding="UTF-8"?> <svg xmlns="http://www.w3.org/2000/svg" width="97" height="90" viewBox="0 0 97 90" fill="none"> <path d="M88.2575 69.2119H8.73341C3.91564 69.2119 0 65.2962 0 60.4784V8.73349C0 3.91571 3.91564 0 8.73341 0H88.2575C93.0752 0 96.9909 3.91571 96.9909 8.73349V60.4989C96.9909 65.2962 93.0752 69.2119 88.2575 69.2119ZM8.75393 2.31663C5.22773 2.31663 2.33711 5.18679 2.33711 8.73349V60.4989C2.33711 64.0251 5.20723 66.9158 8.75393 66.9158H88.2779C91.8041 66.9158 94.6948 64.0456 94.6948 60.4989V8.73349C94.6948 5.20729 91.8246 2.31663 88.2779 2.31663H8.75393Z" fill="#94DBD4"></path> <path d="M63.5919 80.7948C63.0794 80.7948 62.6078 80.4463 62.4643 79.9133L59.5532 68.3301C59.3892 67.7151 59.7787 67.0795 60.3937 66.9155C61.0292 66.7515 61.6443 67.141 61.8083 67.7561L64.7195 79.3392C64.8835 79.9543 64.4939 80.5898 63.8789 80.7538C63.7764 80.7948 63.6739 80.7948 63.5919 80.7948Z" fill="#94DBD4"></path> <path d="M33.4152 80.7948C33.3332 80.7948 33.2306 80.7743 33.1281 80.7538C32.513 80.5898 32.1236 79.9748 32.2876 79.3392L35.1987 67.7561C35.3627 67.141 35.9777 66.7515 36.6133 66.9155C37.2283 67.0795 37.6178 67.6946 37.4538 68.3301L34.5427 79.9133C34.3992 80.4463 33.9277 80.7948 33.4152 80.7948Z" fill="#94DBD4"></path> <path d="M71.2837 90.0002H25.7097C23.5366 90.0002 21.7734 88.2371 21.7734 86.064V82.4352C21.7734 80.2621 23.5366 78.499 25.7097 78.499H71.2837C73.4568 78.499 75.2405 80.2621 75.2405 82.4352V86.064C75.2405 88.2371 73.4773 90.0002 71.2837 90.0002ZM25.7097 80.7952C24.8076 80.7952 24.0901 81.5332 24.0901 82.4352V86.064C24.0901 86.966 24.8281 87.704 25.7097 87.704H71.2837C72.1858 87.704 72.9238 86.966 72.9238 86.064V82.4352C72.9238 81.5332 72.1858 80.7952 71.2837 80.7952H25.7097Z" fill="#94DBD4"></path> <path d="M70.299 43.9335H61.8936C61.258 43.9335 60.7249 43.421 60.7249 42.7855C60.7249 42.1499 61.2375 41.6374 61.8936 41.6374H70.299C71.5701 41.6374 72.5951 40.6123 72.5951 39.3413C72.5951 38.0702 71.5701 37.0452 70.299 37.0452H60.1099C59.4744 37.0452 58.9414 36.5326 58.9414 35.8971C58.9414 35.2615 59.4539 34.749 60.1099 34.749H70.299C72.8412 34.749 74.9118 36.8196 74.9118 39.3618C74.9118 41.8629 72.8412 43.9335 70.299 43.9335Z" fill="#94DBD4"></path> <path d="M68.1259 50.8422H60.1099C59.4744 50.8422 58.9414 50.3297 58.9414 49.6942C58.9414 49.0586 59.4539 48.5461 60.1099 48.5461H68.1259C69.397 48.5461 70.4221 47.521 70.4221 46.25C70.4221 44.9789 69.397 43.9538 68.1259 43.9538H61.873C61.2375 43.9538 60.7044 43.4413 60.7044 42.8058C60.7044 42.1702 61.217 41.6577 61.873 41.6577H68.1259C70.668 41.6577 72.7386 43.7283 72.7386 46.2705C72.7386 48.7716 70.668 50.8422 68.1259 50.8422Z" fill="#94DBD4"></path> <path d="M67.574 37.0249H60.1116C59.476 37.0249 58.9431 36.5124 58.9431 35.8768C58.9431 35.2413 59.4555 34.7288 60.1116 34.7288H67.574C68.6605 34.7288 69.6242 34.0932 69.9112 33.1912C70.1572 32.4326 70.0342 31.6741 69.5832 31.0591C69.1526 30.4645 68.4761 30.116 67.738 30.116H52.3622C51.9522 30.116 51.5831 29.911 51.3781 29.5625C51.1731 29.214 51.1526 28.7834 51.3371 28.4349L53.3462 24.6217C54.4533 22.5101 55.0889 20.132 55.1504 17.7333C55.1914 16.6878 54.8018 15.7037 54.0843 14.9657C53.3667 14.2276 52.3827 13.7971 51.3576 13.7971C50.6401 13.7971 50.0045 14.2276 49.779 14.8426C48.3029 18.8609 45.7403 22.4691 42.1526 25.6058C41.681 26.0158 40.943 25.9748 40.5125 25.5032C40.0819 25.0317 40.1434 24.2937 40.615 23.8632C43.8952 20.993 46.2528 17.6923 47.5854 14.0431C48.1389 12.5055 49.656 11.4805 51.3371 11.4805C53.0182 11.4805 54.5763 12.1365 55.7449 13.3461C56.9134 14.5556 57.508 16.1342 57.467 17.7948C57.3849 20.5215 56.6674 23.2481 55.3963 25.6673L54.2893 27.7994H67.738C69.1936 27.7994 70.5876 28.4964 71.4692 29.6855C72.3507 30.8951 72.5968 32.4121 72.1253 33.8677C71.5307 35.7128 69.6651 37.0249 67.574 37.0249Z" fill="#94DBD4"></path> <path d="M64.1317 57.7514H47.9768C46.0087 57.7514 44.1021 57.3414 42.3185 56.5418C41.7445 56.2753 41.4779 55.5988 41.7444 55.0042C42.0109 54.4302 42.6874 54.1637 43.282 54.4302C44.7581 55.1067 46.3367 55.4348 47.9768 55.4348H64.1317C64.8697 55.4348 65.5463 55.0862 65.9768 54.4917C66.4278 53.8767 66.5303 53.1181 66.3048 52.3596C66.0178 51.4575 65.0543 50.822 63.9677 50.822H60.1134C59.4779 50.822 58.9449 50.3095 58.9449 49.6739C58.9449 49.0384 59.4574 48.5259 60.1134 48.5259H63.9677C66.0588 48.5259 67.9244 49.8174 68.5189 51.683C68.9699 53.1386 68.7445 54.6762 67.8629 55.8858C66.9814 57.0544 65.5873 57.7514 64.1317 57.7514Z" fill="#94DBD4"></path> <path d="M34.4218 57.7513H26.0573C23.8841 57.7513 22.1211 55.9882 22.1211 53.8151V29.5417C22.1211 27.3686 23.8841 25.6055 26.0573 25.6055H34.4218C36.5949 25.6055 38.3579 27.3686 38.3579 29.5417V53.8151C38.3579 55.9882 36.5949 57.7513 34.4218 57.7513ZM26.0368 27.9221C25.1348 27.9221 24.4172 28.6601 24.4172 29.5417V53.8151C24.4172 54.7171 25.1553 55.4346 26.0368 55.4346H34.4013C35.3033 55.4346 36.0208 54.6966 36.0208 53.8151V29.5417C36.0208 28.6396 35.2828 27.9221 34.4013 27.9221H26.0368Z" fill="#94DBD4"></path> </svg> 