<?xml version="1.0" encoding="UTF-8"?> <svg xmlns="http://www.w3.org/2000/svg" width="8" height="8" viewBox="0 0 8 8" fill="none"> <mask id="mask0_343_2084" style="mask-type:alpha" maskUnits="userSpaceOnUse" x="0" y="0" width="8" height="8"> <circle cx="4" cy="4" r="4" fill="#D9D9D9"></circle> </mask> <g mask="url(#mask0_343_2084)"> <path d="M-1.68555 0H12.4197V8H-1.68555V0Z" fill="#B1CC33"></path> <path d="M-1.68555 0H12.4197V2.73684H-1.68555V0Z" fill="#61B2E4"></path> <path d="M-1.68555 2.73682H12.4197V5.26313H-1.68555V2.73682Z" fill="white" stroke="#D22F27" stroke-width="0.5" stroke-miterlimit="10"></path> <path d="M5.73592 1.05264C5.85219 1.05264 5.94644 0.958389 5.94644 0.842118C5.94644 0.725848 5.85219 0.631592 5.73592 0.631592C5.61965 0.631592 5.52539 0.725848 5.52539 0.842118C5.52539 0.958389 5.61965 1.05264 5.73592 1.05264Z" fill="white"></path> <path d="M5.73592 1.68424C5.85219 1.68424 5.94644 1.58998 5.94644 1.47371C5.94644 1.35744 5.85219 1.26318 5.73592 1.26318C5.61965 1.26318 5.52539 1.35744 5.52539 1.47371C5.52539 1.58998 5.61965 1.68424 5.73592 1.68424Z" fill="white"></path> <path d="M5.73592 2.31583C5.85219 2.31583 5.94644 2.22157 5.94644 2.1053C5.94644 1.98903 5.85219 1.89478 5.73592 1.89478C5.61965 1.89478 5.52539 1.98903 5.52539 2.1053C5.52539 2.22157 5.61965 2.31583 5.73592 2.31583Z" fill="white"></path> <path d="M5.1031 1.05264C5.21937 1.05264 5.31363 0.958389 5.31363 0.842118C5.31363 0.725848 5.21937 0.631592 5.1031 0.631592C4.98683 0.631592 4.89258 0.725848 4.89258 0.842118C4.89258 0.958389 4.98683 1.05264 5.1031 1.05264Z" fill="white"></path> <path d="M5.1031 1.68424C5.21937 1.68424 5.31363 1.58998 5.31363 1.47371C5.31363 1.35744 5.21937 1.26318 5.1031 1.26318C4.98683 1.26318 4.89258 1.35744 4.89258 1.47371C4.89258 1.58998 4.98683 1.68424 5.1031 1.68424Z" fill="white"></path> <path d="M5.1031 2.31583C5.21937 2.31583 5.31363 2.22157 5.31363 2.1053C5.31363 1.98903 5.21937 1.89478 5.1031 1.89478C4.98683 1.89478 4.89258 1.98903 4.89258 2.1053C4.89258 2.22157 4.98683 2.31583 5.1031 2.31583Z" fill="white"></path> <path d="M4.47225 1.05264C4.58852 1.05264 4.68277 0.958389 4.68277 0.842118C4.68277 0.725848 4.58852 0.631592 4.47225 0.631592C4.35597 0.631592 4.26172 0.725848 4.26172 0.842118C4.26172 0.958389 4.35597 1.05264 4.47225 1.05264Z" fill="white"></path> <path d="M4.47225 1.68424C4.58852 1.68424 4.68277 1.58998 4.68277 1.47371C4.68277 1.35744 4.58852 1.26318 4.47225 1.26318C4.35597 1.26318 4.26172 1.35744 4.26172 1.47371C4.26172 1.58998 4.35597 1.68424 4.47225 1.68424Z" fill="white"></path> <path d="M4.47225 2.31583C4.58852 2.31583 4.68277 2.22157 4.68277 2.1053C4.68277 1.98903 4.58852 1.89478 4.47225 1.89478C4.35597 1.89478 4.26172 1.98903 4.26172 2.1053C4.26172 2.22157 4.35597 2.31583 4.47225 2.31583Z" fill="white"></path> <path d="M3.84139 1.68424C3.95766 1.68424 4.05191 1.58998 4.05191 1.47371C4.05191 1.35744 3.95766 1.26318 3.84139 1.26318C3.72512 1.26318 3.63086 1.35744 3.63086 1.47371C3.63086 1.58998 3.72512 1.68424 3.84139 1.68424Z" fill="white"></path> <path d="M3.84139 2.31583C3.95766 2.31583 4.05191 2.22157 4.05191 2.1053C4.05191 1.98903 3.95766 1.89478 3.84139 1.89478C3.72512 1.89478 3.63086 1.98903 3.63086 2.1053C3.63086 2.22157 3.72512 2.31583 3.84139 2.31583Z" fill="white"></path> <path d="M3.20857 2.31583C3.32484 2.31583 3.4191 2.22157 3.4191 2.1053C3.4191 1.98903 3.32484 1.89478 3.20857 1.89478C3.0923 1.89478 2.99805 1.98903 2.99805 2.1053C2.99805 2.22157 3.0923 2.31583 3.20857 2.31583Z" fill="white"></path> <path d="M1.95618 1.47366C1.95363 1.30617 2.0088 1.1429 2.11243 1.01129C2.21605 0.879678 2.36182 0.78774 2.52523 0.750922C2.48028 0.741619 2.4345 0.736893 2.3886 0.736816C2.19846 0.744691 2.01872 0.825765 1.88696 0.963089C1.75521 1.10041 1.68164 1.28335 1.68164 1.47366C1.68164 1.66397 1.75521 1.84691 1.88696 1.98423C2.01872 2.12155 2.19846 2.20263 2.3886 2.2105C2.4345 2.21042 2.48028 2.2057 2.52523 2.1964C2.36182 2.15958 2.21605 2.06764 2.11243 1.93603C2.0088 1.80442 1.95363 1.64115 1.95618 1.47366Z" fill="white"></path> </g> </svg> 