<?xml version="1.0" encoding="UTF-8"?> <svg xmlns="http://www.w3.org/2000/svg" width="43" height="54" viewBox="0 0 43 54" fill="none"> <rect width="43" height="50" rx="20" transform="matrix(-1 0 0 1 43 4)" fill="#DBBB7A"></rect> <rect width="43" height="50" rx="20" transform="matrix(-1 0 0 1 43 0)" fill="url(#paint0_linear_345_2671)"></rect> <path d="M18.9987 33.67C19.1887 33.67 19.3787 33.6 19.5287 33.45L26.0488 26.93C27.1087 25.87 27.1087 24.13 26.0488 23.07L19.5287 16.55C19.2387 16.26 18.7587 16.26 18.4688 16.55C18.1788 16.84 18.1788 17.32 18.4688 17.61L24.9887 24.13C25.4687 24.61 25.4687 25.39 24.9887 25.87L18.4688 32.39C18.1788 32.68 18.1788 33.16 18.4688 33.45C18.6187 33.59 18.8088 33.67 18.9987 33.67Z" fill="#745310"></path> <defs> <linearGradient id="paint0_linear_345_2671" x1="13.7696" y1="30.1517" x2="46.133" y2="19.4241" gradientUnits="userSpaceOnUse"> <stop offset="0.0378357" stop-color="#FCD384"></stop> <stop offset="0.447375" stop-color="#FFEDC7"></stop> <stop offset="0.752116" stop-color="#FFF6D6"></stop> </linearGradient> </defs> </svg> 