<?xml version="1.0" encoding="UTF-8"?> <svg xmlns="http://www.w3.org/2000/svg" width="269" height="268" viewBox="0 0 269 268" fill="none"> <g style="mix-blend-mode:hard-light" filter="url(#filter0_f_348_3006)"> <path fill-rule="evenodd" clip-rule="evenodd" d="M134.192 248C197.259 248 248.384 196.96 248.384 134C248.384 71.0395 197.259 20 134.192 20C71.1256 20 20 71.0395 20 134C20 196.96 71.1256 248 134.192 248ZM134.194 221.471C182.609 221.471 221.857 182.309 221.857 134C221.857 85.6914 182.609 46.5295 134.194 46.5295C85.7792 46.5295 46.5312 85.6914 46.5312 134C46.5312 182.309 85.7792 221.471 134.194 221.471Z" fill="url(#paint0_linear_348_3006)"></path> </g> <path fill-rule="evenodd" clip-rule="evenodd" d="M134.192 248C197.259 248 248.384 196.96 248.384 134C248.384 71.0395 197.259 20 134.192 20C71.1256 20 20 71.0395 20 134C20 196.96 71.1256 248 134.192 248ZM134.194 221.471C182.609 221.471 221.857 182.309 221.857 134C221.857 85.6914 182.609 46.5295 134.194 46.5295C85.7792 46.5295 46.5312 85.6914 46.5312 134C46.5312 182.309 85.7792 221.471 134.194 221.471Z" fill="url(#paint1_linear_348_3006)"></path> <defs> <filter id="filter0_f_348_3006" x="0" y="0" width="268.385" height="268" filterUnits="userSpaceOnUse" color-interpolation-filters="sRGB"> <feFlood flood-opacity="0" result="BackgroundImageFix"></feFlood> <feBlend mode="normal" in="SourceGraphic" in2="BackgroundImageFix" result="shape"></feBlend> <feGaussianBlur stdDeviation="10" result="effect1_foregroundBlur_348_3006"></feGaussianBlur> </filter> <linearGradient id="paint0_linear_348_3006" x1="134.192" y1="20" x2="134.192" y2="248" gradientUnits="userSpaceOnUse"> <stop stop-color="#FE542E"></stop> <stop offset="0.503101" stop-color="#FEC03B"></stop> <stop offset="1" stop-color="#FE4BFF"></stop> </linearGradient> <linearGradient id="paint1_linear_348_3006" x1="134.192" y1="20" x2="134.192" y2="248" gradientUnits="userSpaceOnUse"> <stop stop-color="#FE542E"></stop> <stop offset="0.503101" stop-color="#FEC03B"></stop> <stop offset="1" stop-color="#FE4BFF"></stop> </linearGradient> </defs> </svg> 