<?xml version="1.0" encoding="UTF-8"?> <svg xmlns="http://www.w3.org/2000/svg" width="32" height="32" viewBox="0 0 32 32" fill="none"> <circle cx="16" cy="16" r="16" fill="url(#paint0_linear_91_506)"></circle> <g filter="url(#filter0_d_91_506)"> <path d="M15.7254 19.5608C17.9368 19.5608 19.7384 17.7799 19.7384 15.5939C19.7384 13.4078 17.9368 11.627 15.7254 11.627C13.5139 11.627 11.7124 13.4078 11.7124 15.5939C11.7124 17.7799 13.5139 19.5608 15.7254 19.5608ZM12.6891 15.5939C12.6891 13.9331 14.0554 12.5874 15.7305 12.5874C17.4055 12.5874 18.7718 13.9381 18.7718 15.5939C18.7718 17.2497 17.4055 18.6003 15.7305 18.6003C14.0504 18.6003 12.6891 17.2497 12.6891 15.5939Z" fill="url(#paint1_linear_91_506)"></path> <path d="M19.7333 22.1814H11.7276C10.2246 22.1814 9 20.9708 9 19.4851V11.6963C9 10.2106 10.2246 9 11.7276 9H19.7333C21.2363 9 22.4609 10.2106 22.4609 11.6963V19.4901C22.4558 20.9758 21.2363 22.1814 19.7333 22.1814ZM11.7225 9.98547C10.7661 9.98547 9.99187 10.7508 9.99187 11.6963V19.4901C9.99187 20.4355 10.7661 21.2009 11.7225 21.2009H19.7282C20.6847 21.2009 21.4589 20.4355 21.4589 19.4901V11.6963C21.4589 10.7508 20.6847 9.98547 19.7282 9.98547H11.7225V9.98547Z" fill="url(#paint2_linear_91_506)"></path> </g> <defs> <filter id="filter0_d_91_506" x="8" y="9" width="17.4609" height="18.1812" filterUnits="userSpaceOnUse" color-interpolation-filters="sRGB"> <feFlood flood-opacity="0" result="BackgroundImageFix"></feFlood> <feColorMatrix in="SourceAlpha" type="matrix" values="0 0 0 0 0 0 0 0 0 0 0 0 0 0 0 0 0 0 127 0" result="hardAlpha"></feColorMatrix> <feOffset dx="1" dy="3"></feOffset> <feGaussianBlur stdDeviation="1"></feGaussianBlur> <feComposite in2="hardAlpha" operator="out"></feComposite> <feColorMatrix type="matrix" values="0 0 0 0 0 0 0 0 0 0 0 0 0 0 0 0 0 0 0.14 0"></feColorMatrix> <feBlend mode="normal" in2="BackgroundImageFix" result="effect1_dropShadow_91_506"></feBlend> <feBlend mode="normal" in="SourceGraphic" in2="effect1_dropShadow_91_506" result="shape"></feBlend> </filter> <linearGradient id="paint0_linear_91_506" x1="26" y1="3.5" x2="6" y2="28.5" gradientUnits="userSpaceOnUse"> <stop stop-color="#5F6CDD"></stop> <stop offset="0.48981" stop-color="#875CDC"></stop> <stop offset="1" stop-color="#E5108D"></stop> </linearGradient> <linearGradient id="paint1_linear_91_506" x1="15.7254" y1="11.627" x2="15.7254" y2="19.5608" gradientUnits="userSpaceOnUse"> <stop stop-color="white" stop-opacity="0.88"></stop> <stop offset="1" stop-color="white" stop-opacity="0.85"></stop> </linearGradient> <linearGradient id="paint2_linear_91_506" x1="15.7304" y1="9" x2="15.7304" y2="22.1814" gradientUnits="userSpaceOnUse"> <stop stop-color="white"></stop> <stop offset="0.0001" stop-color="white"></stop> <stop offset="1" stop-color="white" stop-opacity="0.88"></stop> </linearGradient> </defs> </svg> 