<?xml version="1.0" encoding="UTF-8"?> <svg xmlns="http://www.w3.org/2000/svg" width="155" height="46" viewBox="0 0 155 46" fill="none"> <path d="M38.7323 13.4563V34.0463H32.5646V21.4268L21.8625 30.1345L10.9026 21.3693V34.0463H4.73486V13.4563H10.9026L21.8625 22.017L32.5646 13.4563H38.7323Z" fill="white"></path> <path d="M66.7888 30.7822H47.6517L46.8205 34.0463H40.4512L45.7586 13.4563H68.7111L74.0185 34.0463H67.6201L66.7888 30.7822ZM65.3258 25.0467L63.8338 19.1343H50.5798L49.0877 25.0467H65.3258Z" fill="white"></path> <path d="M75.7389 13.4563H98.1469C103.282 13.4563 106.667 17.0165 106.667 21.3991C106.667 24.4885 104.973 27.1645 102.191 28.4876L105.749 34.0463H98.4316L95.7051 29.3398H82.0771V34.0463H75.7368V13.4563H75.7389ZM98.1448 23.6639C99.3501 23.6639 100.354 22.6647 100.354 21.3991C100.354 20.1335 99.3501 19.1343 98.1448 19.1343H82.0791V23.6639H98.1448Z" fill="white"></path> <path d="M139.659 27.2539C139.659 31.4895 136.733 34.2849 129.99 34.4021H118.111C110.077 34.4021 108.758 29.8128 108.758 27.0473H115.098C115.271 28.0764 116.476 28.6367 118.512 28.6367H129.988C132.255 28.6367 133.2 28.1658 133.2 27.3711C133.2 26.7831 132.712 26.2824 131.249 26.2824H116.588C111.596 26.2824 109.072 23.9302 109.072 20.2827C109.072 16.6948 111.339 13.1644 118.425 13.1047H130.102C138.221 13.1047 139.225 18.2522 139.225 20.2528H132.884C132.77 19.4006 131.995 18.6634 129.929 18.6634H118.425C116.044 18.6634 115.499 19.341 115.499 19.9567C115.499 20.5724 115.987 21.0454 117.278 21.0454H132.427C137.19 21.0454 139.659 23.6064 139.659 27.2539Z" fill="white"></path> <path d="M5.54128 36.9587V41.8761H4.73291V36.9587H5.54128Z" fill="white"></path> <path d="M9.7558 37.6812V41.8742H8.94742V37.6812H6.37891V36.9568H12.3243V37.6812H9.7558Z" fill="white"></path> <path d="M18.2219 41.9444H18.0162C17.6317 41.9444 17.2868 41.9252 16.9813 41.889C16.6758 41.8506 16.3786 41.7888 16.0898 41.6994C15.803 41.6099 15.564 41.4778 15.377 41.2988C15.19 41.122 15.0591 40.9025 14.9863 40.6447H15.8425C15.9797 40.894 16.2415 41.0644 16.6259 41.1582C17.0125 41.2519 17.532 41.2988 18.1845 41.2988C18.9388 41.2988 19.4958 41.2349 19.8553 41.1092C20.2169 40.9835 20.3956 40.7598 20.3956 40.4423V40.3784C20.3956 40.1483 20.3125 39.9885 20.1483 39.8947C19.9841 39.801 19.6786 39.7477 19.2298 39.7328L17.079 39.6561C16.4077 39.6284 15.9319 39.5198 15.6534 39.3301C15.3749 39.1405 15.2357 38.838 15.2357 38.4204V38.3714C15.2357 37.8323 15.4622 37.451 15.9173 37.2272C16.3724 37.0035 17.052 36.8906 17.9559 36.8906H18.1471C18.5212 36.8906 18.8536 36.9098 19.1446 36.946C19.4355 36.9844 19.7161 37.0483 19.9904 37.1399C20.2647 37.2315 20.4912 37.3679 20.672 37.5468C20.8528 37.7279 20.9795 37.9517 21.0523 38.218H20.1961C20.086 37.9602 19.8491 37.7833 19.4833 37.6832C19.1176 37.5852 18.6313 37.5362 18.0245 37.5362C17.3034 37.5362 16.7943 37.598 16.5013 37.7194C16.2062 37.8409 16.0586 38.0411 16.0586 38.316V38.3309C16.0586 38.5653 16.1418 38.7293 16.3059 38.8231C16.4701 38.9168 16.7756 38.9701 17.2244 38.985L19.3752 39.0553C20.0506 39.083 20.5265 39.1917 20.8029 39.3813C21.0793 39.5709 21.2164 39.8734 21.2164 40.291V40.3464C21.2164 40.6596 21.1478 40.9238 21.0107 41.1369C20.8735 41.3499 20.6678 41.514 20.3914 41.6312C20.115 41.7484 19.8054 41.8293 19.4605 41.8762C19.1155 41.9231 18.7061 41.9444 18.2219 41.9444Z" fill="white"></path> <path d="M24.4354 41.9445H24.1611C23.4067 41.9445 22.8477 41.8081 22.4799 41.5333C22.1121 41.2584 21.9292 40.811 21.9292 40.1889V39.8437C21.9292 39.2173 22.1121 38.7656 22.4778 38.4908C22.8435 38.216 23.4046 38.0796 24.1631 38.0796H24.4375C25.7259 38.0796 26.4553 38.4801 26.6298 39.2812H25.8547C25.7446 39.0661 25.5721 38.9169 25.3331 38.8317C25.0941 38.7465 24.7616 38.706 24.3335 38.706C23.7496 38.706 23.3257 38.7912 23.0659 38.9595C22.8061 39.1278 22.6752 39.4432 22.6752 39.9076V40.1186C22.6752 40.583 22.8061 40.8984 23.0659 41.0667C23.3257 41.235 23.7496 41.3202 24.3335 41.3202C24.7637 41.3202 25.0962 41.2776 25.3331 41.1945C25.57 41.1114 25.7446 40.9601 25.8547 40.745H26.6298C26.4553 41.5439 25.7238 41.9445 24.4354 41.9445Z" fill="white"></path> <path d="M31.5941 39.5708V41.874H30.8481V39.7051C30.8481 39.3215 30.7359 39.0595 30.5114 38.9189C30.287 38.7782 29.9836 38.7079 29.6012 38.7079C29.1316 38.7079 28.7679 38.7996 28.5123 38.9828C28.2567 39.166 28.1279 39.4664 28.1279 39.8883V41.8761H27.3818V36.9587H28.1279V38.855H28.1694C28.4063 38.3394 28.9549 38.0815 29.8132 38.0815C30.366 38.0815 30.8003 38.1923 31.1182 38.4161C31.4362 38.6376 31.5941 39.0233 31.5941 39.5708Z" fill="white"></path> <path d="M35.0066 41.9444H34.5952C33.847 41.9444 33.286 41.8059 32.914 41.5289C32.542 41.252 32.355 40.8045 32.355 40.1867V39.8415C32.355 39.2151 32.5399 38.7634 32.9098 38.4886C33.2797 38.2137 33.8408 38.0774 34.5952 38.0774H35.0066C35.761 38.0774 36.322 38.2137 36.6961 38.4886C37.0681 38.7634 37.2551 39.213 37.2551 39.8415V40.1867C37.2551 40.8045 37.0681 41.252 36.6961 41.5289C36.322 41.808 35.7589 41.9444 35.0066 41.9444ZM33.5 41.0666C33.7639 41.2349 34.1982 41.3201 34.8009 41.3201C35.4035 41.3201 35.8378 41.2349 36.1059 41.0666C36.374 40.8983 36.507 40.583 36.507 40.1185V39.9076C36.507 39.4431 36.374 39.1278 36.1059 38.9594C35.8378 38.7911 35.4035 38.7059 34.8009 38.7059C34.1982 38.7059 33.7639 38.7911 33.5 38.9594C33.2361 39.1278 33.1031 39.4431 33.1031 39.9076V40.1185C33.101 40.583 33.234 40.8983 33.5 41.0666Z" fill="white"></path> <path d="M40.5696 41.9444H40.1581C39.41 41.9444 38.849 41.8059 38.477 41.5289C38.105 41.252 37.918 40.8045 37.918 40.1867V39.8415C37.918 39.2151 38.1029 38.7634 38.4728 38.4886C38.8427 38.2137 39.4038 38.0774 40.1581 38.0774H40.5696C41.3239 38.0774 41.885 38.2137 42.2591 38.4886C42.6311 38.7634 42.8181 39.213 42.8181 39.8415V40.1867C42.8181 40.8045 42.6311 41.252 42.2591 41.5289C41.885 41.808 41.3219 41.9444 40.5696 41.9444ZM39.0609 41.0666C39.3248 41.2349 39.7591 41.3201 40.3618 41.3201C40.9644 41.3201 41.3988 41.2349 41.6668 41.0666C41.9349 40.8983 42.0679 40.583 42.0679 40.1185V39.9076C42.0679 39.4431 41.9349 39.1278 41.6668 38.9594C41.3988 38.7911 40.9644 38.7059 40.3618 38.7059C39.7591 38.7059 39.3248 38.7911 39.0609 38.9594C38.797 39.1278 38.664 39.4431 38.664 39.9076V40.1185C38.664 40.583 38.797 40.8983 39.0609 41.0666Z" fill="white"></path> <path d="M44.3764 36.9587V41.8761H43.6304V36.9587H44.3764Z" fill="white"></path> <path d="M145.893 14.4045C148.728 14.4045 151.026 12.0484 151.026 9.14193C151.026 6.23551 148.728 3.87939 145.893 3.87939C143.058 3.87939 140.76 6.23551 140.76 9.14193C140.76 12.0484 143.058 14.4045 145.893 14.4045Z" stroke="#F04923" stroke-width="3" stroke-miterlimit="10"></path> </svg> 