<?xml version="1.0" encoding="UTF-8"?> <svg xmlns="http://www.w3.org/2000/svg" width="99" height="84" viewBox="0 0 99 84" fill="none"> <path d="M45.9135 68.0445H9.42765C4.24573 68.0445 0.0195312 63.8183 0.0195312 58.6364V9.40815C0.0195312 4.22623 4.24573 0 9.42765 0H80.5941C85.776 0 90.0023 4.22623 90.0023 9.40815V13.5494C90.0023 14.2078 89.4713 14.7387 88.7917 14.7387C88.1121 14.7387 87.5812 14.2078 87.5812 13.5494V9.40815C87.5812 5.54295 84.438 2.39982 80.5728 2.39982H9.40644C5.54124 2.39982 2.39811 5.54295 2.39811 9.40815V58.6364C2.39811 62.5016 5.54124 65.6447 9.40644 65.6447H45.8923C46.5506 65.6447 47.1028 66.1757 47.1028 66.834C47.1028 67.5136 46.5718 68.0445 45.9135 68.0445Z" fill="#94DBD4"></path> <path d="M77.0492 15.6735H1.21052C0.552161 15.6735 0 15.1426 0 14.4842C0 13.8259 0.530924 13.2949 1.21052 13.2949H77.0492C77.7075 13.2949 78.2597 13.8259 78.2597 14.4842C78.2597 15.1426 77.7075 15.6735 77.0492 15.6735Z" fill="#94DBD4"></path> <path d="M10.6415 10.4061C11.9904 10.4061 13.0838 9.31263 13.0838 7.96378C13.0838 6.61494 11.9904 5.52148 10.6415 5.52148C9.29267 5.52148 8.19922 6.61494 8.19922 7.96378C8.19922 9.31263 9.29267 10.4061 10.6415 10.4061Z" fill="#94DBD4"></path> <path d="M20.7509 10.4061C22.0997 10.4061 23.1932 9.31263 23.1932 7.96378C23.1932 6.61494 22.0997 5.52148 20.7509 5.52148C19.402 5.52148 18.3086 6.61494 18.3086 7.96378C18.3086 9.31263 19.402 10.4061 20.7509 10.4061Z" fill="#94DBD4"></path> <path d="M30.8603 10.4061C32.2091 10.4061 33.3026 9.31263 33.3026 7.96378C33.3026 6.61494 32.2091 5.52148 30.8603 5.52148C29.5114 5.52148 28.418 6.61494 28.418 7.96378C28.418 9.31263 29.5114 10.4061 30.8603 10.4061Z" fill="#94DBD4"></path> <path d="M73.8871 26.0368H40.0347C39.3764 26.0368 38.8242 25.5059 38.8242 24.8475C38.8242 24.1891 39.3551 23.6582 40.0347 23.6582H73.8871C74.5454 23.6582 75.0977 24.1891 75.0977 24.8475C75.0977 25.5059 74.5667 26.0368 73.8871 26.0368Z" fill="#94DBD4"></path> <path d="M24.2741 26.0368H10.5972C9.93888 26.0368 9.38672 25.5059 9.38672 24.8475C9.38672 24.1891 9.91764 23.6582 10.5972 23.6582H24.2741C24.9325 23.6582 25.4847 24.1891 25.4847 24.8475C25.4847 25.5059 24.9325 26.0368 24.2741 26.0368Z" fill="#94DBD4"></path> <path d="M65.9843 36.613H10.5972C9.93888 36.613 9.38672 36.082 9.38672 35.4237C9.38672 34.7653 9.91764 34.2344 10.5972 34.2344H65.9843C66.6427 34.2344 67.1948 34.7653 67.1948 35.4237C67.1736 36.0608 66.6427 36.613 65.9843 36.613Z" fill="#94DBD4"></path> <path d="M58.3831 47.1681H41.9879C41.3295 47.1681 40.7773 46.6372 40.7773 45.9789C40.7773 45.3205 41.3083 44.7896 41.9879 44.7896H58.3831C59.0415 44.7896 59.5937 45.3205 59.5937 45.9789C59.5937 46.6372 59.0415 47.1681 58.3831 47.1681Z" fill="#94DBD4"></path> <path d="M21.7894 47.1681H10.5972C9.93888 47.1681 9.38672 46.6372 9.38672 45.9789C9.38672 45.3205 9.91764 44.7896 10.5972 44.7896H21.7894C22.4477 44.7896 22.9999 45.3205 22.9999 45.9789C22.9999 46.6372 22.4477 47.1681 21.7894 47.1681Z" fill="#94DBD4"></path> <path d="M50.3128 57.7443H10.5777C9.91935 57.7443 9.36719 57.2134 9.36719 56.555C9.36719 55.8967 9.89811 55.3657 10.5777 55.3657H50.3128C50.9712 55.3657 51.5234 55.8967 51.5234 56.555C51.5234 57.2134 50.9712 57.7443 50.3128 57.7443Z" fill="#94DBD4"></path> <path d="M50.3318 83.6964C50.077 83.6964 49.8433 83.6115 49.631 83.4628C49.2275 83.1868 49.0576 82.6771 49.1638 82.2098L52.8803 66.9189C52.9228 66.7703 52.9865 66.6216 53.0714 66.4942L86.7539 19.9843C87.2848 19.2623 88.0494 18.7738 88.9414 18.6464C89.8333 18.4977 90.7253 18.7101 91.4474 19.241L97.6062 23.7009C99.1141 24.784 99.4539 26.8865 98.3495 28.3943L64.667 74.9042C64.5821 75.0316 64.4546 75.1378 64.3272 75.2227L50.9477 83.5266C50.7778 83.6327 50.5654 83.6964 50.3318 83.6964ZM55.1527 67.7047L52.1794 79.9374L62.8619 73.3114L96.3956 26.9927C96.7142 26.5679 96.608 25.952 96.1833 25.6547L90.0244 21.1949C89.8121 21.0462 89.5572 20.9825 89.3024 21.025C89.0475 21.0674 88.8352 21.1949 88.6653 21.4072L55.1527 67.7047Z" fill="#94DBD4"></path> <path d="M63.7125 75.3926C63.4789 75.3926 63.224 75.3289 63.0116 75.159L53.3486 68.1719C52.8177 67.7896 52.6903 67.0251 53.0725 66.4941C53.4548 65.9632 54.1982 65.8358 54.7503 66.2181L64.4133 73.2052C64.9443 73.5874 65.0717 74.352 64.6894 74.8829C64.4558 75.2227 64.0948 75.3926 63.7125 75.3926Z" fill="#94DBD4"></path> <path d="M94.357 33.0664C94.1234 33.0664 93.8685 33.0027 93.6562 32.8328L83.9932 25.8457C83.4622 25.4635 83.3348 24.6989 83.7171 24.168C84.0993 23.637 84.8427 23.5096 85.3949 23.8919L95.0579 30.879C95.5888 31.2612 95.7162 32.0258 95.3339 32.5567C95.1003 32.8965 94.7393 33.0664 94.357 33.0664Z" fill="#94DBD4"></path> <path d="M58.8698 71.8885C58.6362 71.8885 58.3813 71.8248 58.1689 71.6549C57.638 71.2726 57.5106 70.5081 57.8929 69.9772L71.6972 50.9272C72.0794 50.3963 72.8227 50.2689 73.3749 50.6512C73.9058 51.0334 74.0333 51.798 73.651 52.3289L59.8467 71.3788C59.6131 71.7186 59.252 71.8885 58.8698 71.8885Z" fill="#94DBD4"></path> </svg> 