<?xml version="1.0" encoding="UTF-8"?> <svg xmlns="http://www.w3.org/2000/svg" width="27" height="27" viewBox="0 0 27 27" fill="none"> <path d="M13.5 15.0369C11.9913 15.0369 10.7588 13.8115 10.7588 12.2957C10.7588 10.7799 11.9913 9.56152 13.5 9.56152C15.0088 9.56152 16.2413 10.7869 16.2413 12.3028C16.2413 13.8186 15.0088 15.0369 13.5 15.0369ZM13.5 10.624C12.5792 10.624 11.8213 11.3749 11.8213 12.3028C11.8213 13.2307 12.5721 13.9815 13.5 13.9815C14.428 13.9815 15.1788 13.2307 15.1788 12.3028C15.1788 11.3749 14.4209 10.624 13.5 10.624Z" fill="#94DBD4"></path> <path d="M13.4999 21.1215C12.4516 21.1215 11.3962 20.7248 10.5745 19.9386C8.48494 17.9269 6.17578 14.7182 7.04703 10.9003C7.83328 7.4365 10.8579 5.88525 13.4999 5.88525C13.4999 5.88525 13.4999 5.88525 13.507 5.88525C16.1491 5.88525 19.1737 7.4365 19.9599 10.9073C20.8241 14.7253 18.5149 17.9269 16.4254 19.9386C15.6037 20.7248 14.5483 21.1215 13.4999 21.1215ZM13.4999 6.94775C11.4387 6.94775 8.78953 8.04567 8.08828 11.134C7.32328 14.4703 9.41994 17.3461 11.3183 19.1665C12.5437 20.3494 14.4633 20.3494 15.6887 19.1665C17.5799 17.3461 19.6766 14.4703 18.9258 11.134C18.2174 8.04567 15.5612 6.94775 13.4999 6.94775Z" fill="#94DBD4"></path> <circle cx="13.5" cy="13.5" r="13" stroke="#94DBD4"></circle> </svg> 