<?xml version="1.0" encoding="UTF-8"?> <svg xmlns="http://www.w3.org/2000/svg" width="97" height="102" viewBox="0 0 97 102" fill="none"> <path d="M32.1715 75.5649C31.6604 75.5649 31.1726 75.472 30.6848 75.2629C29.5698 74.7751 28.7567 73.753 28.5245 72.545L27.5953 67.7134C27.3398 66.4125 26.2015 65.4833 24.9007 65.4833H24.4593C20.5103 65.4833 17.3047 62.2777 17.3047 58.3519V31.0342C17.3047 27.0852 20.5103 23.9028 24.4593 23.9028H89.0136C92.9626 23.9028 96.1683 27.1085 96.1683 31.0342V58.3287C96.1683 62.2777 92.9626 65.4601 89.0136 65.4601H52.985C50.5923 65.4601 48.2694 66.1338 46.2484 67.3881L34.1692 74.9609C33.542 75.379 32.8451 75.5649 32.1715 75.5649ZM24.4361 26.5277C21.9506 26.5277 19.9296 28.5487 19.9296 31.0575V58.3519C19.9296 60.8375 21.9506 62.8816 24.4361 62.8816H24.8775C27.4559 62.8816 29.6859 64.7168 30.1505 67.2488L31.0797 72.0805C31.1494 72.4521 31.3817 72.7309 31.7069 72.8703C32.0321 73.0096 32.4038 72.9864 32.729 72.8006L44.8082 65.2278C47.2473 63.6947 50.058 62.8816 52.9385 62.8816H88.9672C91.4527 62.8816 93.4737 60.8607 93.4737 58.3519V31.0342C93.4737 28.5487 91.4527 26.5045 88.9672 26.5045H24.4361V26.5277Z" fill="#94DBD4"></path> <path d="M52.0337 102H11.0804C4.97108 102 0 97.0289 0 90.9196V11.0804C0 4.97107 4.97108 0 11.0804 0H52.0105C58.1198 0 63.0909 4.97107 63.0909 11.0804V16.2605C63.0909 16.9806 62.5101 17.5614 61.7668 17.5614C61.0467 17.5614 60.4427 16.9806 60.4427 16.2605V11.0804C60.4427 6.41128 56.6563 2.6249 51.9872 2.6249H11.0804C6.4113 2.6249 2.62491 6.41128 2.62491 11.0804V90.9196C2.62491 95.5887 6.4113 99.3751 11.0804 99.3751H52.0105C56.6796 99.3751 60.466 95.5887 60.466 90.9196V71.6857C60.466 70.9656 61.0467 70.3849 61.79 70.3849C62.5102 70.3849 63.1141 70.9656 63.1141 71.6857V90.9196C63.0909 97.0289 58.1198 102 52.0337 102Z" fill="#94DBD4"></path> <path d="M44.506 89.7814H18.6053C17.8852 89.7814 17.2812 89.2007 17.2812 88.4806C17.2812 87.7604 17.862 87.1797 18.6053 87.1797H44.506C45.2261 87.1797 45.8301 87.7604 45.8301 88.4806C45.8069 89.1774 45.2261 89.7814 44.506 89.7814Z" fill="#94DBD4"></path> <path d="M44.506 13.0084H18.6053C17.8852 13.0084 17.2812 12.4277 17.2812 11.7076C17.2812 10.9875 17.862 10.4067 18.6053 10.4067H44.506C45.2261 10.4067 45.8301 10.9875 45.8301 11.7076C45.8069 12.4045 45.2261 13.0084 44.506 13.0084Z" fill="#94DBD4"></path> <path d="M51.92 53.7296C51.4554 53.7296 50.9908 53.5902 50.5959 53.2882C49.899 52.7772 49.5506 51.9177 49.6899 51.0582L50.4101 46.9002L47.3902 43.95C46.7631 43.3461 46.554 42.4401 46.8095 41.6271C47.0883 40.7908 47.7851 40.2101 48.6446 40.094L52.8259 39.49L54.6842 35.7036C55.0791 34.9138 55.8457 34.4492 56.7052 34.4492C57.5647 34.4492 58.3545 34.937 58.7494 35.7036L60.6077 39.49L64.789 40.094C65.6485 40.2101 66.3454 40.8141 66.6241 41.6503C66.9029 42.4866 66.6706 43.3693 66.0434 43.9732L63.0236 46.9234L63.7437 51.0814C63.8831 51.9409 63.5346 52.8004 62.8378 53.3115C62.1409 53.8225 61.2117 53.8922 60.4451 53.474L56.7052 51.5228L52.9653 53.474C52.6401 53.6599 52.2916 53.7296 51.92 53.7296ZM56.7052 48.8514C57.0769 48.8514 57.4253 48.9443 57.7737 49.107L61.0259 50.8259L60.3987 47.2021C60.2825 46.4588 60.5148 45.7155 61.0491 45.1812L63.674 42.626L60.027 42.0917C59.2836 41.9755 58.6565 41.511 58.3313 40.8605L56.7052 37.562L55.0792 40.8605C54.7539 41.5342 54.1035 41.9988 53.3602 42.0917L49.7132 42.626L52.3381 45.2044C52.8724 45.7155 53.1279 46.482 52.9885 47.2021L52.3613 50.8259L55.6134 49.107C55.9851 48.9211 56.3568 48.8514 56.7052 48.8514Z" fill="#94DBD4"></path> <path d="M83.4395 53.7293C83.0678 53.7293 82.7194 53.6364 82.3709 53.4737L78.631 51.5225L74.9143 53.4737C74.1478 53.8686 73.2186 53.8222 72.5217 53.3112C71.8248 52.8001 71.4764 51.9406 71.6157 51.0811L72.3358 46.9231L69.316 43.9729C68.6888 43.369 68.4798 42.463 68.7353 41.65C69.014 40.8138 69.7109 40.233 70.5704 40.1169L74.7517 39.5129L76.61 35.7265C77.0049 34.9367 77.7715 34.4722 78.6542 34.4722C79.5137 34.4722 80.3035 34.96 80.6984 35.7265L82.5568 39.5129L86.7148 40.1169C87.5743 40.233 88.2712 40.837 88.5499 41.65C88.8287 42.4863 88.5964 43.369 87.9692 43.9729L84.9494 46.9231L85.6695 51.0811C85.8089 51.9406 85.4604 52.8001 84.7635 53.3112C84.3686 53.5899 83.9041 53.7293 83.4395 53.7293ZM78.6542 48.8511C79.0259 48.8511 79.3743 48.944 79.6996 49.1066L82.9517 50.8256L82.3245 47.2018C82.1851 46.4817 82.4406 45.7152 82.9749 45.2041L85.623 42.6257L81.976 42.0914C81.2327 41.9752 80.6055 41.5107 80.2803 40.8602L78.6542 37.5617L77.0282 40.8602C76.703 41.5339 76.0525 41.9985 75.3092 42.0914L71.6622 42.6257L74.2871 45.2041C74.8214 45.7152 75.0769 46.4817 74.9375 47.2018L74.3103 50.8256L77.5624 49.1066C77.9341 48.9208 78.2826 48.8511 78.6542 48.8511Z" fill="#94DBD4"></path> <path d="M29.9903 53.7294C29.5257 53.7294 29.0611 53.59 28.6662 53.288C27.9693 52.777 27.6209 51.9175 27.7603 51.058L28.4804 46.9L25.4606 43.9498C24.8334 43.3458 24.6243 42.4631 24.8798 41.6269C25.1586 40.7906 25.8555 40.2099 26.7149 40.0705L30.873 39.4666L32.7313 35.6802C33.1262 34.8904 33.8928 34.4258 34.7755 34.4258C35.6582 34.4258 36.4248 34.9136 36.8197 35.7034L38.6781 39.4898L42.8593 40.0937C43.7188 40.2099 44.4157 40.8138 44.6944 41.6269C44.9732 42.4631 44.7409 43.3458 44.1137 43.9498L41.0939 46.9L41.814 51.058C41.9534 51.9175 41.6049 52.777 40.9081 53.288C40.2112 53.7991 39.282 53.8687 38.5154 53.4506L34.7755 51.4993L31.0356 53.4506C30.7104 53.6597 30.3387 53.7294 29.9903 53.7294ZM34.7755 48.8512C35.1472 48.8512 35.4956 48.9441 35.8208 49.1067L39.0729 50.8257L38.4458 47.2019C38.3296 46.4586 38.5619 45.7152 39.0962 45.181L41.7211 42.6257L38.0741 42.0915C37.3307 41.9753 36.7036 41.5107 36.3783 40.8603L34.7523 37.5617L33.1262 40.8603C32.801 41.534 32.1506 41.9985 31.4305 42.0915L27.7835 42.6257L30.4084 45.2042C30.9427 45.7385 31.1982 46.4818 31.0588 47.2019L30.4316 50.8257L33.6837 49.1067C34.0322 48.9209 34.4038 48.8512 34.7755 48.8512Z" fill="#94DBD4"></path> </svg> 