<?xml version="1.0" encoding="UTF-8"?> <svg xmlns="http://www.w3.org/2000/svg" width="116" height="75" viewBox="0 0 116 75" fill="none"> <path d="M74.3016 57.3506C73.7329 57.3506 73.1643 57.2242 72.6378 56.9293L58.5265 49.5156C58.1895 49.3261 57.7684 49.3261 57.4314 49.5156L43.3202 56.9293C42.1197 57.5612 40.6664 57.4559 39.5712 56.6555C38.476 55.8552 37.9284 54.5283 38.1601 53.1804L40.8559 37.4685C40.9191 37.0893 40.7927 36.6892 40.5189 36.4154L29.1036 25.2949C28.1348 24.3471 27.7767 22.936 28.1979 21.6513C28.6192 20.3455 29.7144 19.4187 31.0623 19.2292L46.8374 16.9335C47.2165 16.8703 47.5535 16.6386 47.722 16.2806L54.7776 1.97976C55.3884 0.758195 56.6099 0 57.9789 0C59.3479 0 60.5695 0.758195 61.1803 1.97976L68.2359 16.2806C68.4044 16.6386 68.7414 16.8703 69.1205 16.9335L84.8956 19.2292C86.2436 19.4187 87.3388 20.3455 87.76 21.6513C88.1812 22.9571 87.8442 24.3471 86.8543 25.2949L75.439 36.4154C75.1652 36.6892 75.0388 37.0683 75.102 37.4685L77.7978 53.1804C78.0295 54.5283 77.482 55.8552 76.3868 56.6555C75.7549 57.1189 75.0388 57.3506 74.3016 57.3506ZM57.9789 46.9883C58.5476 46.9883 59.1163 47.1147 59.6429 47.3885L73.7541 54.8021C74.1543 55.0127 74.6176 54.9917 74.9967 54.7179C75.3758 54.4441 75.5442 54.0229 75.46 53.5595L72.7642 37.8476C72.5746 36.6892 72.9537 35.5097 73.7961 34.6883L85.2115 23.5678C85.5485 23.2519 85.6538 22.7886 85.5064 22.3673C85.3589 21.925 85.0009 21.6302 84.5586 21.567L68.7835 19.2713C67.6252 19.1028 66.6142 18.3657 66.1087 17.3337L59.0531 3.03284C58.6529 2.21144 57.3471 2.21144 56.9258 3.03284L49.8702 17.3337C49.3437 18.3867 48.3539 19.1028 47.1955 19.2713L31.4204 21.567C30.957 21.6302 30.599 21.925 30.4726 22.3673C30.3252 22.8096 30.4515 23.2519 30.7675 23.5678L42.1828 34.6883C43.0252 35.5097 43.4044 36.6892 43.2149 37.8265L40.5189 53.5384C40.4347 54.0018 40.6243 54.423 40.9823 54.6968C41.3614 54.9706 41.8248 54.9916 42.2249 54.781L56.3362 47.3674C56.8416 47.1357 57.4103 46.9883 57.9789 46.9883Z" fill="#94DBD4"></path> <path d="M104.505 74.9578C103.915 74.9578 103.304 74.8104 102.757 74.5156L92.6471 69.208C92.2469 68.9974 91.7836 68.9974 91.3834 69.208L81.2739 74.5156C80.0102 75.1895 78.4938 75.0842 77.3354 74.2417C76.177 73.3993 75.6083 71.9881 75.84 70.577L77.567 60.5096C77.6723 59.8567 78.2831 59.4355 78.936 59.5408C79.5889 59.6461 80.0102 60.2569 79.9049 60.9098L78.1779 70.9772C78.0936 71.5037 78.2831 72.0092 78.7254 72.3251C79.1466 72.641 79.6943 72.6832 80.1576 72.4304L90.2672 67.1229C91.3624 66.5543 92.6682 66.5543 93.7634 67.1229L103.873 72.4515C104.336 72.7042 104.884 72.6621 105.305 72.3462C105.747 72.0303 105.937 71.5248 105.853 70.9982L103.915 59.7303C103.704 58.5087 104.105 57.2662 104.989 56.4026L113.182 48.4203C113.561 48.0412 113.688 47.5146 113.519 47.0092C113.351 46.5037 112.95 46.1457 112.403 46.0825L101.093 44.4397C99.8712 44.2712 98.8182 43.4919 98.2706 42.3967L93.2158 32.1397C92.9841 31.6553 92.5207 31.3815 91.9942 31.3815C91.4676 31.3815 91.0043 31.6763 90.7726 32.1397L85.7179 42.3967C85.1703 43.513 84.1172 44.2712 82.8956 44.4397L80.9368 44.7345C80.2839 44.8188 79.6942 44.3765 79.5889 43.7235C79.5047 43.0706 79.947 42.4599 80.5999 42.3756L82.5586 42.0808C83.0009 42.0176 83.4011 41.7438 83.5906 41.3225L88.6454 31.0656C89.2772 29.7808 90.562 28.9805 92.0152 28.9805C93.4474 28.9805 94.7322 29.7808 95.3851 31.0656L100.44 41.3225C100.629 41.7227 101.03 41.9965 101.472 42.0808L112.782 43.7235C114.214 43.9342 115.372 44.903 115.815 46.272C116.257 47.641 115.899 49.1153 114.867 50.1052L106.674 58.0876C106.358 58.4035 106.211 58.8457 106.274 59.3091L108.212 70.577C108.464 71.9881 107.875 73.3993 106.716 74.2417C106.042 74.7262 105.284 74.9578 104.505 74.9578Z" fill="#94DBD4"></path> <path d="M36.4541 74.9578C35.8644 74.9578 35.2535 74.8104 34.7059 74.5156L24.5964 69.208C24.1962 68.9974 23.7329 68.9974 23.3327 69.208L13.2231 74.5156C11.9595 75.1895 10.4431 75.0842 9.2847 74.2417C8.12632 73.3993 7.55763 71.9881 7.78931 70.577L9.72701 59.3091C9.81126 58.8668 9.66375 58.4035 9.32676 58.0876L1.13384 50.1052C0.10183 49.0942 -0.256217 47.6199 0.186076 46.272C0.628368 44.903 1.78673 43.9342 3.21892 43.7235L14.529 42.0808C14.9713 42.0176 15.3714 41.7438 15.561 41.3225L20.6158 31.0656C21.2476 29.7808 22.5324 28.9805 23.9856 28.9805C25.4178 28.9805 26.7025 29.7808 27.3555 31.0656L32.4102 41.3225C32.5998 41.7227 32.9999 41.9965 33.4422 42.0808L35.401 42.3756C36.0539 42.4599 36.4962 43.0706 36.4119 43.7235C36.3277 44.3765 35.7169 44.8188 35.064 44.7345L33.1053 44.4397C31.8837 44.2712 30.8306 43.4919 30.283 42.3967L25.2282 32.1397C24.7649 31.1919 23.2485 31.1919 22.7641 32.1397L17.7093 42.3967C17.1617 43.513 16.1087 44.2712 14.8871 44.4397L3.577 46.0825C3.05047 46.1667 2.62919 46.5037 2.48176 47.0092C2.31327 47.5146 2.43966 48.0412 2.81877 48.4203L11.0117 56.4026C11.8963 57.2662 12.2965 58.5087 12.0858 59.7303L10.1482 70.9982C10.064 71.5248 10.2535 72.0303 10.6958 72.3462C11.117 72.6621 11.6647 72.7042 12.128 72.4515L22.2375 67.144C23.3327 66.5754 24.6386 66.5754 25.7338 67.144L35.8433 72.4725C36.3067 72.7253 36.8542 72.6832 37.2755 72.3672C37.7178 72.0513 37.9073 71.5459 37.8231 71.0193L36.096 60.9519C35.9907 60.299 36.4119 59.6882 37.0648 59.5829C37.6967 59.4776 38.3285 59.8988 38.4338 60.5517L40.1609 70.6192C40.4137 72.0303 39.8239 73.4414 38.6655 74.2839C37.9916 74.7261 37.2123 74.9578 36.4541 74.9578Z" fill="#94DBD4"></path> </svg> 