<?xml version="1.0" encoding="UTF-8"?> <svg xmlns="http://www.w3.org/2000/svg" width="103" height="88" viewBox="0 0 103 88" fill="none"> <path d="M65.1281 43.8196C64.7071 43.8196 64.2661 43.7394 63.8652 43.559C62.903 43.1381 62.2215 42.2761 62.021 41.2538L61.2392 37.1645C61.0388 36.082 60.0766 35.2802 58.9741 35.2802H58.5932C55.2456 35.2802 52.5194 32.554 52.5194 29.2064V6.07382C52.5194 2.72621 55.2456 0 58.5932 0H94.2543C97.6019 0 100.328 2.72621 100.328 6.07382V29.2064C100.328 32.554 97.6019 35.2802 94.2543 35.2802H82.7682C80.7436 35.2802 78.7791 35.8415 77.0752 36.9239L66.832 43.3385C66.2907 43.6592 65.7094 43.8196 65.1281 43.8196ZM58.5732 2.26516C56.4684 2.26516 54.7645 3.96903 54.7645 6.07382V29.2064C54.7645 31.3112 56.4684 33.015 58.5732 33.015H58.9541C61.139 33.015 63.0433 34.5786 63.4442 36.7235L64.226 40.8128C64.2862 41.1134 64.4666 41.354 64.7472 41.4743C65.0278 41.5946 65.3285 41.5745 65.5891 41.4141L75.8324 34.9996C77.8971 33.6966 80.2825 33.015 82.7281 33.015H94.2142C96.319 33.015 98.0228 31.3112 98.0228 29.2064V6.07382C98.0228 3.96903 96.319 2.26516 94.2142 2.26516H58.5732Z" fill="#94DBD4"></path> <path d="M11.7285 74.5694C11.1071 74.5694 10.5859 74.0682 10.5859 73.4468V26.3197C10.5859 22.0299 14.0739 18.542 18.3636 18.542H46.1267C46.7481 18.542 47.2693 19.0431 47.2693 19.6645C47.2693 20.286 46.7682 20.7871 46.1267 20.7871H18.3636C15.3167 20.7871 12.8511 23.2527 12.8511 26.2996V73.4268C12.8711 74.0482 12.37 74.5694 11.7285 74.5694Z" fill="#94DBD4"></path> <path d="M91.1856 74.5693C90.5642 74.5693 90.043 74.0682 90.043 73.4468V41.4941C90.043 40.8727 90.5441 40.3716 91.1856 40.3716C91.8271 40.3716 92.3282 40.8727 92.3282 41.4941V73.4468C92.3282 74.0481 91.807 74.5693 91.1856 74.5693Z" fill="#94DBD4"></path> <path d="M90.9668 87.9999H11.9672C5.3722 87.9999 0 82.6277 0 76.0327C0 73.968 1.68382 72.3042 3.74851 72.3042H99.2055C101.27 72.3042 102.954 73.988 102.954 76.0327C102.934 82.6277 97.5618 87.9999 90.9668 87.9999ZM3.72849 74.5694C2.90663 74.5694 2.26516 75.2309 2.26516 76.0527C2.26516 81.4049 6.61503 85.7548 11.9672 85.7548H90.9668C96.319 85.7548 100.669 81.4049 100.669 76.0527C100.669 75.2309 100.007 74.5694 99.2055 74.5694H3.72849Z" fill="#94DBD4"></path> <path d="M76.4119 30.1085C69.6565 30.1085 64.1641 24.616 64.1641 17.8606C64.1641 11.1053 69.6565 5.61279 76.4119 5.61279C83.1672 5.61279 88.6597 11.1053 88.6597 17.8606C88.6397 24.616 83.1472 30.1085 76.4119 30.1085ZM76.4119 7.89799C70.9194 7.89799 66.4292 12.3681 66.4292 17.8807C66.4292 23.3732 70.8993 27.8634 76.4119 27.8634C81.9244 27.8634 86.3946 23.3932 86.3946 17.8807C86.3745 12.3681 81.9044 7.89799 76.4119 7.89799Z" fill="#94DBD4"></path> <path d="M74.9872 22.5314C74.7066 22.5314 74.4059 22.4111 74.1854 22.1906L69.9558 17.961C69.5147 17.52 69.5147 16.7984 69.9558 16.3574C70.3968 15.9164 71.1184 15.9164 71.5594 16.3574L74.9872 19.7852L81.2414 13.5309C81.6824 13.0899 82.4041 13.0899 82.8451 13.5309C83.2861 13.9719 83.2861 14.6936 82.8451 15.1346L75.789 22.1906C75.5685 22.4111 75.2678 22.5314 74.9872 22.5314Z" fill="#94DBD4"></path> </svg> 