<?xml version="1.0" encoding="UTF-8"?> <svg xmlns="http://www.w3.org/2000/svg" width="91" height="104" viewBox="0 0 91 104" fill="none"> <path d="M21.2564 36.8576C15.4827 36.8576 10.793 32.1679 10.793 26.3941C10.793 20.6204 15.4827 15.9307 21.2564 15.9307C27.0302 15.9307 31.7199 20.6204 31.7199 26.3941C31.7435 32.1679 27.0302 36.8576 21.2564 36.8576ZM21.2564 18.5701C16.9438 18.5701 13.456 22.0815 13.456 26.3706C13.456 30.6832 16.9674 34.171 21.2564 34.171C25.5691 34.171 29.0569 30.6597 29.0569 26.3706C29.0805 22.0815 25.5691 18.5701 21.2564 18.5701Z" fill="#94DBD4"></path> <path d="M6.31579 69.6619C6.10369 69.6619 5.8916 69.6619 5.67951 69.6384C2.49805 69.3084 0 66.4334 0 63.0634V48.3579C0 43.4325 4.00629 39.4263 8.93166 39.4263C10.6049 39.4263 12.2781 39.6148 13.9042 40.0154L17.557 40.8874C19.9843 41.4765 22.553 41.4765 24.9568 40.8874L28.6096 40.0154C30.2357 39.6148 31.9089 39.4263 33.5821 39.4263C38.5075 39.4263 42.5137 43.4325 42.5137 48.3579V63.3461C42.5137 65.1372 41.7596 66.8339 40.4399 68.0358C39.1202 69.2377 37.3291 69.8033 35.5617 69.6384C32.3802 69.3084 29.9057 66.4334 29.9057 63.0634V48.9235C29.9057 48.193 30.4949 47.6038 31.249 47.6038C31.9796 47.6038 32.5923 48.193 32.5923 48.9235V63.0634C32.5923 65.0665 34.0299 66.7868 35.868 66.9753C36.9285 67.0932 37.9183 66.7633 38.696 66.0563C39.4501 65.3729 39.8979 64.3831 39.8979 63.3461V48.3579C39.8979 44.8936 37.0935 42.0893 33.6292 42.0893C32.1681 42.0893 30.707 42.2542 29.293 42.6077L25.6402 43.4797C22.8123 44.1631 19.8193 44.1631 16.9914 43.4797L13.3386 42.6077C11.9246 42.2542 10.4635 42.0893 9.00236 42.0893C5.5381 42.0893 2.73371 44.8936 2.73371 48.3579V63.0634C2.73371 65.0665 4.17125 66.7868 6.00943 66.9753C7.06991 67.0932 8.0597 66.7633 8.83739 66.0563C9.59152 65.3729 10.0393 64.3831 10.0393 63.3461V48.6407C10.0393 47.9102 10.6284 47.321 11.3826 47.321C12.1131 47.321 12.7258 47.9102 12.7258 48.6407V63.3461C12.7258 65.1372 11.9717 66.8339 10.652 68.0358C9.40299 69.0963 7.87117 69.6619 6.31579 69.6619Z" fill="#94DBD4"></path> <path d="M16.2611 103.48C16.049 103.48 15.8369 103.48 15.6248 103.456C12.4433 103.126 9.94531 100.251 9.94531 96.8814V48.641C9.94531 47.9105 10.5345 47.3213 11.2886 47.3213C12.0192 47.3213 12.6319 47.9105 12.6319 48.641V96.8814C12.6319 98.8845 14.0694 100.605 15.9076 100.793C16.9681 100.888 17.9579 100.581 18.7356 99.8743C19.4897 99.1909 19.9375 98.2011 19.9375 97.1642V76.685C19.9375 75.9545 20.5266 75.3653 21.2807 75.3653C22.0113 75.3653 22.624 75.9545 22.624 76.685V97.1642C22.624 98.9552 21.8699 100.652 20.5502 101.854C19.3483 102.891 17.84 103.48 16.2611 103.48Z" fill="#94DBD4"></path> <path d="M26.2533 103.48C24.6979 103.48 23.1661 102.891 22.0113 101.854C20.6916 100.652 19.9375 98.9552 19.9375 97.1641V76.685C19.9375 75.9544 20.5266 75.3652 21.2808 75.3652C22.0113 75.3652 22.6241 75.9544 22.6241 76.685V97.1641C22.6241 98.201 23.0718 99.1908 23.826 99.8742C24.6036 100.581 25.617 100.911 26.6539 100.793C28.4921 100.605 29.9296 98.8845 29.9296 96.8813V48.9237C29.9296 48.1932 30.5188 47.604 31.2729 47.604C32.0035 47.604 32.6162 48.1932 32.6162 48.9237V96.8813C32.6162 100.251 30.1182 103.126 26.9367 103.456C26.6775 103.456 26.4654 103.48 26.2533 103.48Z" fill="#94DBD4"></path> <path d="M52.0358 47.3684C51.5645 47.3684 51.0696 47.2742 50.6218 47.0856C49.5613 46.6143 48.7837 45.6717 48.5716 44.5169L47.7232 40.11C47.5111 39.0024 46.5213 38.1775 45.3901 38.1775H44.9895C41.3131 38.1775 38.3438 35.2082 38.3438 31.5318V6.64571C38.3438 2.99292 41.3367 0 44.9895 0H83.3555C87.0319 0 90.0012 2.96935 90.0012 6.64571V31.5318C90.0012 35.1846 87.0083 38.1775 83.3555 38.1775H70.9832C68.8386 38.1775 66.7412 38.7903 64.903 39.9215L53.8976 46.8264C53.332 47.2035 52.6721 47.3684 52.0358 47.3684ZM44.9895 2.6866C42.7978 2.6866 41.0068 4.47762 41.0068 6.6693V31.5554C41.0068 33.7471 42.7978 35.5381 44.9895 35.5381H45.3901C47.8174 35.5381 49.8913 37.2584 50.339 39.6386L51.1874 44.0456C51.2581 44.4462 51.5645 44.6112 51.6823 44.6819C51.8001 44.729 52.1301 44.8468 52.4836 44.6112L63.4891 37.7062C65.7279 36.2922 68.3202 35.5617 70.9832 35.5617H83.3555C85.5472 35.5617 87.3383 33.7706 87.3383 31.579V6.69289C87.3383 4.50121 85.5472 2.71013 83.3555 2.71013H44.9895V2.6866Z" fill="#94DBD4"></path> <path d="M64.1718 30.6831C60.1655 30.6831 56.1828 29.1278 52.2001 25.9935C51.6109 25.5457 51.5167 24.6973 51.9644 24.1317C52.4122 23.5426 53.2606 23.4483 53.8261 23.8961C60.7782 29.3635 67.5418 29.3635 74.4939 23.8961C75.083 23.4483 75.9079 23.5426 76.3556 24.1317C76.8034 24.7209 76.7091 25.5457 76.12 25.9935C72.1608 29.1278 68.1781 30.6831 64.1718 30.6831Z" fill="#94DBD4"></path> <path d="M56.6755 18.2406C58.2243 18.2406 59.4799 16.0671 59.4799 13.3859C59.4799 10.7048 58.2243 8.53125 56.6755 8.53125C55.1267 8.53125 53.8711 10.7048 53.8711 13.3859C53.8711 16.0671 55.1267 18.2406 56.6755 18.2406Z" fill="#94DBD4"></path> <path d="M71.6402 18.2406C73.189 18.2406 74.4446 16.0671 74.4446 13.3859C74.4446 10.7048 73.189 8.53125 71.6402 8.53125C70.0914 8.53125 68.8358 10.7048 68.8358 13.3859C68.8358 16.0671 70.0914 18.2406 71.6402 18.2406Z" fill="#94DBD4"></path> </svg> 