<?xml version="1.0" encoding="UTF-8"?> <svg xmlns="http://www.w3.org/2000/svg" width="43" height="54" viewBox="0 0 43 54" fill="none"> <rect y="4" width="43" height="50" rx="20" fill="#DBBB7A"></rect> <rect width="43" height="50" rx="20" fill="url(#paint0_linear_345_2665)"></rect> <path d="M24.0013 33.67C23.8113 33.67 23.6213 33.6 23.4713 33.45L16.9512 26.93C15.8913 25.87 15.8913 24.13 16.9512 23.07L23.4713 16.55C23.7613 16.26 24.2413 16.26 24.5312 16.55C24.8212 16.84 24.8212 17.32 24.5312 17.61L18.0113 24.13C17.5313 24.61 17.5313 25.39 18.0113 25.87L24.5312 32.39C24.8212 32.68 24.8212 33.16 24.5312 33.45C24.3813 33.59 24.1912 33.67 24.0013 33.67Z" fill="#745310"></path> <defs> <linearGradient id="paint0_linear_345_2665" x1="13.7696" y1="30.1517" x2="46.133" y2="19.4241" gradientUnits="userSpaceOnUse"> <stop offset="0.0378357" stop-color="#FCD384"></stop> <stop offset="0.447375" stop-color="#FFEDC7"></stop> <stop offset="0.752116" stop-color="#FFF6D6"></stop> </linearGradient> </defs> </svg> 